<?xml version="1.0" encoding="UTF-8"?>
<svg width="260px" height="59px" viewBox="0 0 260 59" version="1.1" xmlns="http://www.w3.org/2000/svg" xmlns:xlink="http://www.w3.org/1999/xlink">
    <!-- Generator: Sketch 53.2 (72643) - https://sketchapp.com -->
    <title>Group 14</title>
    <desc>Created with Sketch.</desc>
    <defs>
        <polygon id="path-1" points="0 0.344398392 170.487217 0.344398392 170.487217 20.2564709 0 20.2564709"></polygon>
        <polygon id="path-3" points="0.297152063 0.281092432 40.8919892 0.281092432 40.8919892 18.6308157 0.297152063 18.6308157"></polygon>
    </defs>
    <g id="V4" stroke="none" stroke-width="1" fill="none" fill-rule="evenodd">
        <g id="Logo-Copy" transform="translate(-102.000000, -1592.000000)">
            <g id="Group-14" transform="translate(102.000000, 1592.000000)">
                <g id="Horizontal-Copy-6">
                    <rect id="Rectangle" fill="#000000" x="0" y="0" width="260" height="59"></rect>
                    <g id="Group-15" transform="translate(19.330855, 19.344262)">
                        <g id="Group-3" transform="translate(0.000000, 0.043938)">
                            <mask id="mask-2" fill="white">
                                <use xlink:href="#path-1"></use>
                            </mask>
                            <g id="Clip-2"></g>
                            <path d="M165.073845,6.51507982 C163.984435,6.51507982 162.706973,6.69517771 161.591901,7.48271781 L161.591901,6.66335006 L158.512121,6.66335006 L158.512121,20.1070362 L158.512522,20.1070362 L161.591099,20.1070362 L161.592302,20.1070362 L161.591901,11.985165 C161.591901,10.7873588 162.588289,9.34890452 164.540968,9.34890452 C166.254274,9.34890452 167.405833,10.4749045 167.405833,12.1512897 L167.405833,20.1070362 L170.487217,20.1070362 L170.487217,11.9630409 C170.487217,8.63200626 168.283136,6.51507982 165.073845,6.51507982 L165.073845,6.51507982 Z M95.5809198,6.51507982 C94.4919102,6.51507982 93.2140481,6.69517771 92.0989761,7.48271781 L92.0989761,6.66335006 L89.019196,6.66335006 L89.019196,20.1070362 L89.0199979,20.1070362 L92.0985751,20.1070362 L92.099778,20.1070362 L92.099377,11.985165 C92.099377,10.7873588 93.0953637,9.34890452 95.0480429,9.34890452 C96.7617494,9.34890452 97.9133089,10.4749045 97.9133089,12.1512897 L97.9133089,20.1070362 L100.994292,20.1070362 L100.994292,11.9630409 C100.994292,8.63200626 98.7902102,6.51507982 95.5809198,6.51507982 L95.5809198,6.51507982 Z M128.395553,6.51507982 C127.306544,6.51507982 126.028682,6.69517771 124.91401,7.48271781 L124.91401,6.66335006 L121.833829,6.66335006 L121.833829,20.1070362 L121.834631,20.1070362 L124.913209,20.1070362 L124.914411,20.1070362 L124.91401,11.985165 C124.91401,10.7873588 125.909997,9.34890452 127.862676,9.34890452 C129.576383,9.34890452 130.727942,10.4749045 130.727942,12.1512897 L130.727942,20.1070362 L133.808925,20.1070362 L133.808925,11.9630409 C133.808925,8.63200626 131.604844,6.51507982 128.395553,6.51507982 L128.395553,6.51507982 Z M46.0967413,11.8819192 C44.759136,11.575287 43.8116656,11.2469189 43.797231,10.4811147 C43.7787868,9.45641986 44.707412,9.14784697 46.3184726,9.14784697 C46.9824637,9.14784697 49.0959282,9.14474183 49.0959282,9.14474183 L49.0959282,6.66373821 L46.3437331,6.66839591 C43.9247365,6.66839591 40.8846516,7.17414493 40.8846516,10.6670347 C40.9131198,12.236681 42.0145592,13.4500128 44.0690824,14.0749214 C44.5402114,14.2177577 45.0217653,14.3283782 45.4872808,14.4351172 C46.9138994,14.7630972 48.1440472,15.0992282 48.1628924,16.1289689 C48.1797327,17.0620622 46.8970591,17.6194341 45.8212812,17.6372887 C43.9275432,17.6372887 42.6765455,16.5807662 42.2864106,16.1992226 L40.276795,18.0130101 C40.276795,18.0130101 42.0346072,20.2564709 45.9415694,20.2564709 C48.5033081,20.2564709 51.1235871,18.649563 51.0762737,16.0249468 C51.0293613,13.4220666 48.5329792,12.4435606 46.0967413,11.8819192 L46.0967413,11.8819192 Z M73.0693756,11.9762377 C72.9314451,11.1091285 72.5052237,10.312273 71.7911125,9.79953738 C71.0152533,9.24294176 70.2638527,9.14124856 69.4466946,9.14124856 C68.3107726,9.1416367 67.2819071,9.6629114 66.5657911,10.4648128 C65.9960258,11.1033063 65.7386089,11.9762377 65.7386089,11.9762377 L73.0693756,11.9762377 Z M69.7141354,20.2560827 C65.665634,20.243274 62.6351722,17.3112494 62.626351,13.3898508 C62.626351,12.5235179 62.7775133,11.6548561 63.0918665,10.8428631 C63.5674061,9.6167225 64.4154382,8.53186563 65.5164766,7.76916661 C66.7177552,6.93699017 68.194093,6.51430354 69.6668221,6.51430354 C71.6150907,6.51585611 73.1924705,7.16948722 74.3243829,8.34555747 C75.101846,9.15522167 75.6275056,10.183798 75.9310329,11.2434256 C76.2036863,12.1959261 76.2333574,13.1488147 76.2333574,14.1292613 L65.6624264,14.1292613 L65.7245753,14.4215323 C66.1131063,16.2279451 67.7113361,17.4381718 69.7153383,17.4408888 C71.4494939,17.435843 72.5826091,16.6471384 73.1792388,16.0684187 L75.2874908,17.9714789 C74.006822,19.3885854 71.9230286,20.2518132 69.7141354,20.2560827 L69.7141354,20.2560827 Z M35.3566048,11.9762377 C35.2190752,11.1091285 34.7924529,10.312273 34.0783417,9.79953738 C33.3028834,9.24294176 32.5514829,9.14124856 31.7343247,9.14124856 C30.5984027,9.1416367 29.5691363,9.6629114 28.8534212,10.4648128 C28.2836559,11.1033063 28.0262391,11.9762377 28.0262391,11.9762377 L35.3566048,11.9762377 Z M32.0017656,20.2560827 C27.9532642,20.243274 24.9224014,17.3112494 24.9135802,13.3898508 C24.9135802,12.5235179 25.0647424,11.6548561 25.3794967,10.8428631 C25.8546353,9.6167225 26.7026674,8.53186563 27.8037058,7.76916661 C29.0049844,6.93699017 30.4817231,6.51430354 31.9544522,6.51430354 C33.9027208,6.51585611 35.4801007,7.16948722 36.6120131,8.34555747 C37.3894761,9.15522167 37.9147348,10.183798 38.2182621,11.2434256 C38.4909155,12.1959261 38.5205866,13.1488147 38.5205866,14.1292613 L27.9496555,14.1292613 L28.0118045,14.4215323 C28.4003355,16.2279451 29.9985653,17.4381718 32.0029685,17.4408888 C33.736723,17.435843 34.8702393,16.6471384 35.466869,16.0684187 L37.575121,17.9714789 C36.2944521,19.3885854 34.2102578,20.2518132 32.0017656,20.2560827 L32.0017656,20.2560827 Z M22.0463094,2.22184122 L18.5238686,14.9474647 L14.2981425,2.22184122 L10.9866071,2.22184122 L6.76088105,14.9474647 L3.23844025,2.22184122 L-0.000120288246,2.22184122 L4.95054295,20.1070362 L8.18910349,20.1070362 L12.6421743,6.83956653 L17.0956462,20.1070362 L20.3342067,20.1070362 L25.2848699,2.22184122 L22.0463094,2.22184122 Z M84.4414263,6.54380233 C83.5156078,6.66102121 82.5432778,6.96105497 81.6776034,7.63292877 L81.6776034,6.66257378 L81.6768015,6.66257378 L78.5970214,6.66257378 L78.5978234,20.1070362 L81.6776034,20.1070362 L81.6776034,11.9316014 C81.6776034,11.657185 81.7241149,11.3831567 81.8331762,11.1297 C82.0974094,10.5168238 82.6082335,9.87289622 83.3528177,9.56277076 C83.8540187,9.35356223 84.3295583,9.28330853 84.741345,9.28253224 L84.741345,9.28253224 C85.1872135,9.28253224 85.8383738,9.35162152 86.296672,9.582566 L86.296672,6.70915082 C86.296672,6.70915082 85.3676458,6.4261953 84.4414263,6.54380233 L84.4414263,6.54380233 Z M138.06753,0.344398392 C136.776436,0.344398392 135.729528,1.357449 135.729528,2.60765436 C135.729528,3.17938752 135.950457,3.70027408 136.312124,4.09889591 L139.822937,4.09889591 C140.184603,3.70027408 140.405934,3.17938752 140.405934,2.60765436 C140.405934,1.357449 139.358624,0.344398392 138.06753,0.344398392 L138.06753,0.344398392 Z M115.863523,13.0323721 C115.863523,13.0323721 116.144997,17.2215886 111.414462,17.2215886 C106.683926,17.2215886 106.967405,13.010248 106.967405,13.010248 L106.967405,2.22145308 L103.717217,2.22145308 L103.717217,12.9104955 C103.717217,17.3818912 106.738857,20.2564709 111.415664,20.2564709 C116.092071,20.2564709 119.113711,17.3818912 119.113711,12.9326196 L119.113711,2.22145308 L115.863523,2.22145308 L115.863523,13.0323721 Z M153.0783,13.3859694 C153.0783,11.0217965 151.394265,9.30543262 149.073103,9.30543262 C146.736704,9.30543262 145.04064,11.0217965 145.04064,13.3859694 C145.04064,15.7497542 146.736704,17.4661181 149.073103,17.4661181 C151.394265,17.4661181 153.0783,15.7497542 153.0783,13.3859694 L153.0783,13.3859694 Z M156.148056,13.3859694 C156.148056,17.3027103 153.106769,20.2564709 149.073103,20.2564709 C145.0242,20.2564709 141.971285,17.3027103 141.971285,13.3859694 C141.971285,9.46845226 145.0242,6.51469168 149.073103,6.51469168 C153.106769,6.51469168 156.148056,9.46845226 156.148056,13.3859694 L156.148056,13.3859694 Z M136.52744,6.66335006 L136.528242,20.1070362 L139.607621,20.1070362 L139.60722,6.66335006 L136.52744,6.66335006 Z M60.7294054,17.0484773 L61.409435,19.505028 L61.0830528,19.6661069 C60.3216282,20.0204805 59.5798507,20.2564709 58.4355086,20.2564709 C55.9395275,20.2564709 54.389012,18.7656175 54.389012,16.3653474 L54.3846014,9.14474183 L51.8188531,9.14474183 L51.8188531,6.66373821 L54.3846014,6.66373821 L54.3846014,3.10331169 L57.4639805,2.30490361 L57.4639805,6.66373821 L60.7145699,6.66373821 L60.7145699,9.14474183 L57.4615747,9.14474183 L57.4639805,15.9853563 C57.4639805,16.8582877 58.0658227,17.4587434 58.9968537,17.5146358 C59.5140932,17.5456872 60.026922,17.3993576 60.4804087,17.1726827 C60.4808097,17.1726827 60.7294054,17.0484773 60.7294054,17.0484773 L60.7294054,17.0484773 Z" id="Fill-1" fill="#FFDD00" mask="url(#mask-2)"></path>
                        </g>
                        <polygon id="Fill-4" fill="#FFFFFF" points="178.645808 20.1509739 173.56804 2.26539075 174.863945 2.26539075 179.941713 20.1509739"></polygon>
                        <g id="Group-8" transform="translate(180.432369, 1.984648)">
                            <mask id="mask-4" fill="white">
                                <use xlink:href="#path-3"></use>
                            </mask>
                            <g id="Clip-7"></g>
                            <path d="M36.9100874,0.281480574 L36.9100874,11.295786 L36.9108893,11.3225678 C36.9116912,11.3377053 36.9918834,12.8382622 35.9918871,13.8660622 C35.3427315,14.5328902 34.3667929,14.87135 33.0925394,14.87135 C31.817885,14.87135 30.8423473,14.5328902 30.1935927,13.8660622 C29.1935964,12.8386504 29.2745905,11.3377053 29.2753924,11.3241203 L29.2765953,0.281480574 L27.6338588,0.281480574 L25.2926486,8.61023149 L25.2926486,11.2006912 C25.2926486,13.4049496 26.0308174,15.273077 27.4277649,16.6020752 C28.8219057,17.9291326 30.7810003,18.6308934 33.0925394,18.6308934 C35.4032766,18.6308934 37.3623712,17.9291326 38.7569129,16.6020752 C40.1538604,15.273077 40.8920293,13.4049496 40.8920293,11.2006912 L40.8920293,0.281480574 L36.9100874,0.281480574 Z M25.2926486,0.281092432 L20.2654018,18.1662874 L16.6178613,18.1662874 L12.8079315,6.31010203 L8.99760088,18.1662874 L5.37491988,18.1662874 L0.297152063,0.281092432 L4.25022478,0.281092432 L7.35767113,11.5997011 L10.9895742,0.281092432 L14.6483417,0.281092432 L18.3456014,11.6843161 L21.3864883,0.281092432 L25.2926486,0.281092432 Z" id="Fill-6" fill="#FFDD00" mask="url(#mask-4)"></path>
                        </g>
                        <polygon id="Fill-9" fill="#FFFFFF" points="182.226267 20.1509739 177.148901 2.26539075 178.444806 2.26539075 183.522574 20.1509739"></polygon>
                        <path d="M170.487217,20.1509739 L170.487217,12.0069785" id="Fill-11" fill="#FFDD00"></path>
                        <path d="M167.405994,12.1950333 L167.405994,20.1511679" id="Fill-13" fill="#FFDD00"></path>
                    </g>
                </g>
            </g>
        </g>
    </g>
</svg>