<?xml version="1.0" encoding="UTF-8"?>
<svg width="292px" height="235px" viewBox="0 0 292 235" version="1.1" xmlns="http://www.w3.org/2000/svg" xmlns:xlink="http://www.w3.org/1999/xlink">
    <title>95F6F65B-FBB4-4B34-A87F-672496A2E074@1x</title>
    <defs>
        <rect id="path-1" x="0" y="0" width="292" height="235"></rect>
        <path d="M121.464057,0.563796822 C76.0062576,0.563796822 28.4015124,5.33294259 7.56060594,41.9834468 L7.56060594,41.9834468 C4.87692433,46.7057584 11.5272757,92.1150433 9.45566182,97.2199662 L9.45566182,97.2199662 C9.22809817,97.7668938 9.01544387,98.3066773 8.80435897,98.8551926 L8.80435897,98.8551926 C8.27154616,100.219733 7.76070501,101.600944 7.27418963,102.990093 L7.27418963,102.990093 C2.55812926,116.452928 0,131.03502 0,146.283903 L0,146.283903 C0,183.9338 13.7087479,215.638141 37.2184266,237.443806 L37.2184266,237.443806 L238.081794,237.443806 C247.13255,229.046204 249.930798,219.178486 249.950415,208.07006 L249.950415,208.07006 L249.950415,207.835889 C249.919812,190.150836 242.928115,169.332657 242.928115,146.283903 L242.928115,146.283903 C242.928115,76.9137881 190.031338,0.563796822 121.464057,0.563796822 Z" id="path-3"></path>
    </defs>
    <g id="Spot" stroke="none" stroke-width="1" fill="none" fill-rule="evenodd">
        <g id="Oval">
            <mask id="mask-2" fill="white">
                <use xlink:href="#path-1"></use>
            </mask>
            <g id="Mask"></g>
            <g id="Group-96" mask="url(#mask-2)">
                <g transform="translate(25.000000, 2.000000)">
                    <path d="M205.217944,236.880009 L37.4266705,236.880009 C14.0145525,215.172924 0.362693275,183.611913 0.362693275,146.132225 C0.362693275,130.952279 2.91020678,116.436111 7.60591496,103.034139 C8.09119284,101.651271 8.59913265,100.276304 9.13051583,98.9171421 C9.34072477,98.3718968 9.5524966,97.8345536 9.7791159,97.2893082 C11.8413515,92.2082541 14.2169469,87.3010464 16.8894918,82.5992933 C37.6454753,46.1152703 76.0527579,21.8400009 121.322698,21.8400009 C189.605437,21.8400009 242.282703,77.0757213 242.282703,146.132225 C242.282703,183.611913 228.623029,215.172924 205.217944,236.880009 Z" id="Fill-1" fill="#FFE640"></path>
                    <g id="Group-95" stroke-width="1" fill="none" transform="translate(0.362693, 0.000000)">
                        <mask id="mask-4" fill="white">
                            <use xlink:href="#path-3"></use>
                        </mask>
                        <g id="Clip-4"></g>
                        <polygon id="Fill-3" fill="#AEDEB4" mask="url(#mask-4)" points="60.4926946 250.44825 168.412792 250.44825 168.412792 13.3036965 60.4926946 13.3036965"></polygon>
                        <path d="M65.2332377,232.028077 L65.2332377,232.028077 L65.2332377,244.895209 L163.673347,244.895209 L163.673347,18.3522625 L65.2332377,18.3522625 L65.2332377,232.028077 Z M72.0821187,232.283337 L72.0821187,232.235625 C72.0821187,228.698575 76.2441793,225.710213 81.1721093,225.710213 C86.1008239,225.710213 90.2620998,228.700165 90.2620998,232.235625 C90.2620998,235.771879 86.0992545,238.761036 81.1721093,238.761036 C76.2457487,238.761036 72.0821187,235.772674 72.0821187,232.235625 L72.0821187,232.283337 Z M156.984545,232.237215 C156.984545,235.774265 152.820915,238.762626 147.89377,238.762626 C142.96741,238.762626 138.80221,235.772674 138.80221,232.237215 C138.80221,228.701756 142.96584,225.711804 147.89377,225.711804 C152.822485,225.711804 156.984545,228.701756 156.984545,232.237215 L156.984545,232.237215 Z M156.836237,144.996615 L156.836237,221.820095 C154.081147,220.247189 150.928998,219.426542 147.72192,219.447218 C139.024281,219.447218 131.973731,225.209237 131.973731,232.31594 C131.984717,234.653828 132.745094,236.932076 134.152065,238.841351 L94.2334778,238.841351 C95.6396642,236.931281 96.4000406,234.653828 96.4102418,232.31594 C96.4102418,225.210828 89.3596923,219.447218 80.6636222,219.447218 C77.4565442,219.426542 74.3051801,220.247189 71.5493059,221.820095 L71.5493059,145.243127 C78.2373229,158.798106 94.8063104,168.393785 114.190025,168.393785 C133.573739,168.393785 150.140373,158.798106 156.829959,145.243127 L156.836237,144.996615 Z M156.836237,31.4706774 L156.836237,31.4539782 C156.836237,34.9942088 152.672607,37.9793897 147.745461,37.9793897 C142.818316,37.9793897 138.653117,34.9894376 138.653117,31.4539782 C138.653117,27.9185189 142.816747,24.9285668 147.745461,24.9285668 C152.674176,24.9285668 156.836237,27.9169285 156.836237,31.4539782 L156.836237,31.4706774 Z M134.145787,24.9118675 C132.738816,26.821938 131.97844,29.1001861 131.967454,31.437279 C131.967454,38.5431865 139.018003,44.3036155 147.715643,44.3036155 C150.922721,44.3234955 154.07487,43.5028491 156.829959,41.9299434 L156.829959,118.445681 C150.140373,104.891496 133.57217,95.2958175 114.190025,95.2958175 C94.8070951,95.2958175 78.2381076,104.891496 71.5493059,118.445681 L71.5493059,41.9331242 C74.3051801,43.5060299 77.4565442,44.3274715 80.6636222,44.3060011 C89.3596923,44.3060011 96.4102418,38.5471625 96.4102418,31.4404598 C96.4000406,29.1033669 95.6396642,26.8251188 94.2334778,24.9150484 L134.145787,24.9118675 Z M90.10359,31.4539782 C90.10359,34.991028 85.9415294,37.9793897 81.0143841,37.9793897 C76.0880235,37.9793897 71.9236088,34.9894376 71.9236088,31.4539782 C71.9236088,27.9185189 76.0864541,24.9285668 81.0143841,24.9285668 C85.9430988,24.9285668 90.10359,27.9169285 90.10359,31.4539782 L90.10359,31.4539782 Z" id="Fill-5" fill="#5FBC69" mask="url(#mask-4)"></path>
                        <polygon id="Fill-6" fill="#AEDEB4" mask="url(#mask-4)" points="144.196175 134.89837 97.6068342 134.89837 104.766457 143.476987 92.2324087 143.476987 84.1829332 134.047505 84.1829332 124.813643 144.196175 124.813643"></polygon>
                        <polygon id="Fill-7" fill="#62B459" mask="url(#mask-4)" points="86.2891525 31.975868 77.6079917 31.975868 78.8713623 33.4899289 76.6592868 33.4899289 75.2350522 31.82478 75.2350522 29.9576503 86.2891525 29.9576503"></polygon>
                        <polygon id="Fill-8" fill="#62B459" mask="url(#mask-4)" points="153.67012 31.975868 144.986605 31.975868 146.250761 33.4899289 144.038685 33.4899289 142.61602 31.82478 142.61602 29.9576503 153.67012 29.9576503"></polygon>
                        <polygon id="Fill-9" fill="#62B459" mask="url(#mask-4)" points="86.2891525 233.293082 77.9972041 233.293082 79.267637 234.30219 77.046145 234.30219 75.2350522 232.858902 75.2350522 231.274864 86.2891525 231.274864"></polygon>
                        <polygon id="Fill-10" fill="#62B459" mask="url(#mask-4)" points="153.67012 233.293082 144.872039 233.293082 146.142472 234.30219 143.920195 234.30219 142.61602 232.858902 142.61602 231.274864 153.67012 231.274864"></polygon>
                        <polygon id="Fill-11" fill="#5FBC69" mask="url(#mask-4)" points="112.545289 55.3135576 110.534097 54.1986871 109.371168 56.126252 107.122997 55.5481416 106.52113 57.7039289 104.199981 57.7039289 104.199981 59.9288985 101.951809 60.5062138 102.552891 62.6604106 100.540914 63.7760763 101.704628 65.7036412 100.059892 67.2805228 101.704628 68.8589949 100.540914 70.7865598 102.552891 71.9014302 101.951809 74.0564223 104.199981 74.6337375 104.199981 76.857912 106.52113 76.857912 107.122997 79.0129041 109.371168 78.4363841 110.534097 80.363949 112.545289 79.2522593 114.190025 80.8283458 115.835545 79.2522593 117.847522 80.363949 119.011235 78.4363841 121.259407 79.0129041 121.862843 76.857912 124.183992 76.857912 124.183992 74.6337375 126.432164 74.0564223 125.831082 71.9014302 127.842274 70.7865598 126.68013 68.8589949 128.324866 67.2805228 126.68013 65.7036412 127.842274 63.7760763 125.831082 62.6604106 126.432164 60.5062138 124.183992 59.9288985 124.183992 57.7039289 121.862843 57.7039289 121.259407 55.5481416 119.011235 56.126252 117.847522 54.1986871 115.835545 55.3135576 114.190025 53.7374711"></polygon>
                        <polygon id="Fill-12" fill="#BCDBAF" mask="url(#mask-4)" points="113.149902 188.89277 111.8779 188.188223 111.141064 189.407264 109.722323 189.042267 109.341742 190.40365 107.87121 190.40365 107.87121 191.812744 106.453253 192.176151 106.833834 193.537533 105.561831 194.241285 106.297097 195.461122 105.256582 196.456712 106.297097 197.454688 105.561831 198.67373 106.833834 199.378277 106.453253 200.73966 107.87121 201.103066 107.87121 202.512161 109.341742 202.512161 109.722323 203.871953 111.141064 203.508546 111.8779 204.727588 113.149902 204.024631 114.191202 205.019426 115.227793 204.024631 116.501365 204.727588 117.238201 203.508546 118.656942 203.871953 119.037523 202.512161 120.505701 202.512161 120.505701 201.103066 121.925227 200.73966 121.543862 199.378277 122.817433 198.67373 122.082952 197.454688 123.122683 196.456712 122.082952 195.461122 122.817433 194.241285 121.543862 193.537533 121.925227 192.176151 120.505701 191.812744 120.505701 190.40365 119.037523 190.40365 118.656942 189.042267 117.238201 189.407264 116.501365 188.188223 115.227793 188.89277 114.191202 187.896384"></polygon>
                        <polygon id="Fill-13" fill="#000000" opacity="0.198497954" mask="url(#mask-4)" points="168.41546 100.767271 168.41546 246.773949 138.533999 250.444592 79.6185558 250.444592 78.8730887 244.894096 78.0020692 238.336081 77.4606247 234.304417 77.0525795 231.273114 76.4483588 226.700714 76.4483588 226.692762 75.5694923 220.134748 71.5526016 190.073006 65.234964 142.795183 60.4953626 107.326081 49.1407214 22.337487 60.4953626 20.9458869 65.234964 20.3590293 81.6352405 18.3511492 122.769331 13.3040146 156.731243 13.3040146 157.406087 18.3511492 163.675858 65.2902167"></polygon>
                        <polygon id="Fill-14" fill="#AEDEB4" mask="url(#mask-4)" points="183.691101 242.917785 168.412949 244.794457 122.327387 250.448329 76.6498703 256.05449 75.9044032 250.448329 60.4928515 135.128421 58.5538523 120.647828 54.0418145 86.827971 45.2225462 20.8343203 60.4928515 18.9576483 106.58626 13.303776 152.263777 7.69761583 153.008459 13.303776 160.252045 67.4966582 168.412949 128.568021 182.584671 234.623849"></polygon>
                        <path d="M78.9042414,237.209283 L78.9042414,237.209283 L80.6093993,249.972243 L178.252251,237.987784 L148.231114,13.2793634 L50.5874768,25.2638231 L78.9042414,237.209283 Z M85.7311507,236.628787 L85.7248731,236.581075 C85.2564059,233.072652 88.9892344,229.602399 93.8771445,229.002023 C98.7658394,228.401647 103.288863,230.861201 103.75733,234.368033 C104.226582,237.874865 100.493754,241.347504 95.6066282,241.947084 C90.7202875,242.547461 86.1933403,240.090292 85.7248731,236.581075 L85.7311507,236.628787 Z M169.940685,226.246655 C170.408368,229.755078 166.675539,233.226126 161.787629,233.825707 C156.900504,234.426083 152.373557,231.967324 151.904305,228.460492 C151.436622,224.952865 155.169451,221.480226 160.058146,220.880645 C164.94684,220.280269 169.471433,222.739823 169.940685,226.246655 L169.940685,226.246655 Z M158.231359,139.730482 L168.412085,215.932115 C165.471021,214.707507 162.235694,214.277304 159.058435,214.687627 C150.430634,215.746834 144.200098,222.319957 145.141741,229.369406 C145.462684,231.686618 146.519678,233.853539 148.168337,235.576737 L108.573048,240.437 C109.71479,238.37107 110.165993,236.018868 109.867022,233.698475 C108.926164,226.651412 101.167813,221.79274 92.542366,222.851946 C89.3580444,223.221714 86.341649,224.419285 83.8164773,226.315042 L73.6679234,150.35833 C82.0979794,162.989288 99.8047851,170.49041 119.031559,168.130256 C138.258333,165.770102 153.419565,154.235726 158.258039,139.975404 L158.231359,139.730482 Z M143.186263,27.123796 L143.184694,27.107892 C143.653945,30.6187001 139.918763,34.0865674 135.031637,34.6869435 C130.145297,35.2865243 125.61678,32.8277658 125.149098,29.3209336 C124.68063,25.8141015 128.414244,22.341463 133.302154,21.7418821 C138.190849,21.1415061 142.715442,23.5986742 143.184694,27.107892 L143.186263,27.123796 Z M119.810768,23.3807894 C118.668242,25.4467191 118.216253,27.7989208 118.515225,30.1185193 C119.456868,37.1671724 127.213649,42.0218685 135.84145,40.9626621 C139.024202,40.5928941 142.042167,39.3953228 144.566554,37.499566 L154.707261,113.395047 C146.274851,100.76568 128.56883,93.2645586 109.343625,95.6247123 C90.1192056,97.9840708 74.9556198,109.518447 70.1171458,123.777179 L59.9772237,47.8848784 C62.9190723,49.1102816 66.1536149,49.5404848 69.3316589,49.1293664 C77.9578905,48.07016 84.1884261,41.5002173 83.2467835,34.450769 C82.926625,32.132761 81.8704158,29.9658409 80.2225411,28.2426424 L119.810768,23.3807894 Z M76.991922,35.2316555 C77.461174,38.740078 73.7283455,42.2111262 68.8420047,42.810707 C63.9548793,43.411083 59.4287168,40.9523245 58.9602496,37.4446972 C58.4909977,33.937865 62.2238261,30.4652265 67.112521,29.8656457 C72.0004312,29.2652696 76.5242395,31.7232329 76.991922,35.2316555 L76.991922,35.2316555 Z" id="Fill-15" fill="#5FBC69" mask="url(#mask-4)"></path>
                        <polygon id="Fill-16" fill="#AEDEB4" mask="url(#mask-4)" points="144.355626 131.253173 98.1437275 136.924539 106.381531 144.56164 93.9502788 146.087629 84.7166877 137.714968 83.4925522 128.555854 143.019278 121.249556"></polygon>
                        <polygon id="Fill-17" fill="#62B459" mask="url(#mask-4)" points="73.2780049 36.2139661 64.6658979 37.2707869 66.1215206 38.618651 63.9267084 38.8882238 62.2937431 37.4091517 62.0465619 35.5571309 73.0104214 34.2116524"></polygon>
                        <polygon id="Fill-18" fill="#62B459" mask="url(#mask-4)" points="140.113291 28.0107621 131.499614 29.0683781 132.954452 30.415447 130.75964 30.6850198 129.128244 29.2059477 128.881848 27.3539268 139.845707 26.0084484"></polygon>
                        <polygon id="Fill-20" fill="#62B459" mask="url(#mask-4)" points="166.792382 227.697577 158.065708 228.768711 159.459339 229.614009 157.255895 229.884377 155.770454 228.612057 155.560939 227.040742 166.524798 225.695263"></polygon>
                        <polygon id="Fill-21" fill="#5FBC69" mask="url(#mask-4)" points="102.413842 56.166171 100.27082 55.3049694 99.3739051 57.3589711 97.0676653 57.0583855 96.7553538 59.270632 94.4530375 59.5537232 94.7480855 61.7596081 92.5940779 62.6057009 93.4752985 64.6700402 91.6281095 66.0218802 93.0382194 67.7919955 91.6155542 69.5557492 93.4564657 70.9211076 92.5571969 72.9751093 94.7002187 73.8363109 94.3902613 76.046967 96.6972858 76.345167 96.9923339 78.5518471 99.2938655 78.2695511 100.176656 80.3338904 102.330663 79.4877976 103.737634 81.258708 105.586393 79.910844 107.426519 81.2738168 108.850754 79.5100632 110.993776 80.368084 111.89226 78.3140823 114.199284 78.6130775 114.511596 76.4016262 116.813912 76.1193302 116.519649 73.9126501 118.672872 73.0665573 117.790082 71.002218 119.637271 69.6511732 118.229515 67.8802627 119.65218 66.1149186 117.811269 64.7511506 118.708968 62.6979441 116.565161 61.8359473 116.877473 59.6260864 114.570448 59.3270912 114.2754 57.1204111 111.973869 57.4027071 111.089509 55.3375726 108.935502 56.1844606 107.526177 54.4143454 105.678203 55.7653902 103.835722 54.4024174"></polygon>
                        <polygon id="Fill-22" fill="#BCDBAF" mask="url(#mask-4)" points="120.716472 188.589878 119.361291 188.045961 118.792382 189.344523 117.335974 189.155265 117.139014 190.552432 115.681037 190.731352 115.867797 192.128518 114.508692 192.662097 115.066616 193.966225 113.898979 194.81868 114.788831 195.939117 113.889562 197.053192 115.053276 197.916779 114.485936 199.215341 115.840332 199.759258 115.643372 201.155629 117.099779 201.344091 117.285754 202.741258 118.74373 202.562338 119.301654 203.864875 120.661543 203.332091 121.552964 204.450938 122.722171 203.599279 123.886669 204.459685 124.782799 203.346405 126.138764 203.887936 126.708458 202.589375 128.163296 202.777042 128.361041 201.381466 129.818233 201.202546 129.630689 199.805379 130.990578 199.272595 130.432655 197.967672 131.601861 197.114422 130.711224 195.994781 131.610493 194.87832 130.446779 194.017913 131.014119 192.716966 129.658938 192.175435 129.855114 190.778269 128.399491 190.590601 128.213517 189.193435 126.756325 189.37156 126.198401 188.068227 124.839297 188.602601 123.947091 187.48296 122.777884 188.337004 121.616525 187.474212"></polygon>
                        <polygon id="Fill-23" fill="#000000" opacity="0.198497954" mask="url(#mask-4)" points="182.584514 234.623769 181.533013 234.949801 180.30103 234.615817 178.53545 235.872233 176.408907 236.532249 173.717379 235.792713 170.696275 237.947705 168.412792 237.319497 167.133727 236.969609 164.112623 239.124602 160.550075 238.146505 157.528972 240.301498 153.958577 239.323402 150.937473 241.478394 147.374925 240.500298 144.353821 242.65529 140.791273 241.677194 137.762323 243.832186 134.199775 242.85409 131.178671 245.009082 127.600429 244.030986 124.595019 246.185978 121.016777 245.207882 118.003521 247.362874 114.433126 246.384778 111.419869 248.53977 107.841627 247.561674 104.82837 249.716666 101.250128 248.73857 98.8567864 250.44825 98.2368716 250.893562 96.604691 250.44825 95.9298471 250.265354 94.6586295 249.915466 93.9131624 250.44825 91.6375259 252.070458 88.0671308 251.092362 85.0373955 253.247354 81.459938 252.27721 81.1382101 250.44825 60.4926946 131.764645 58.5536954 120.647749 52.6064372 86.4382434 54.0416576 86.8278915 56.1768323 87.4083875 59.1979359 85.2533954 60.4926946 85.6112354 62.752637 86.2394434 65.7737405 84.0844513 69.3362886 85.0625474 72.3652392 82.9075553 75.9277873 83.8856513 78.9488909 81.7306592 82.511439 82.7087553 85.5325426 80.5537632 89.0950907 81.5318592 92.1161943 79.3768672 95.6787424 80.3549632 98.6998459 78.1999711 102.269456 79.1780671 105.291345 77.0230751 108.86174 78.0011711 111.874996 75.846179 115.453238 76.8163231 118.466495 74.669283 122.03689 75.647379 125.050147 73.4923869 128.619757 74.470483 131.633798 72.3154909 135.21204 73.2856349 138.232359 71.1385948 141.795692 72.1166909 144.824643 69.9537468 148.395038 70.9318428 151.416141 68.7768507 151.957586 68.9358907 151.964648 68.9279387 154.986537 69.7549468 158.00764 67.5999547 158.784495 67.8146587 160.251888 67.4965787 167.902735 65.8346106 168.412792 68.7688987 168.412792 128.567941"></polygon>
                        <polygon id="Fill-24" fill="#FFFFFF" mask="url(#mask-4)" points="160.969185 63.8432707 157.941019 65.999058 154.369839 65.0225523 151.345597 67.1775444 147.777556 66.2002436 144.754098 68.3552357 141.185272 67.3779348 138.16103 69.5337221 134.593774 68.5564213 131.57267 70.7106182 128.004629 69.7333173 124.985095 71.8883094 121.418623 70.9102134 118.400658 73.0644103 114.833402 72.0871094 111.811514 74.2421015 108.245042 73.2648007 105.223154 75.4189976 101.656682 74.4416967 98.6347941 76.5966888 95.0691072 75.6185928 92.0480036 77.7735849 88.481532 76.796284 85.4604284 78.9504809 81.8963109 77.9723849 78.8752074 80.1273769 75.3095205 79.1492809 72.290771 81.304273 68.7258688 80.326177 65.7039805 82.4803738 62.139863 81.503073 59.1211135 83.6572699 55.5585654 82.6791738 52.5382466 84.8333707 48.9725597 83.8552747 50.0515252 90.0602205 56.3989815 126.535251 70.6742844 208.578424 77.020956 245.053454 77.8284146 249.691856 81.4019485 250.667566 84.4301144 248.511779 88.002079 249.48908 91.0247519 247.334088 94.592793 248.311388 97.6170353 246.155601 101.185861 247.132902 104.210103 244.97791 107.77736 245.955211 110.797679 243.800219 114.36572 244.777519 117.386038 242.623323 120.95251 243.600623 123.970475 241.446427 127.537731 242.424523 130.559619 240.269531 134.126876 241.246831 137.147979 239.091839 140.714451 240.069935 143.735555 237.914943 147.302811 238.892244 150.32313 236.738047 153.889601 237.715348 156.90992 235.561151 160.474822 236.538452 163.496711 234.384255 167.061613 235.361556 170.080362 233.207359 173.64448 234.185455 176.667153 232.030463 180.23127 233.008559 183.25002 230.854362 186.813353 231.832458 189.832887 229.678261 193.398574 230.655562 192.318823 224.451411 185.972152 187.976381 171.696849 105.933208 165.350177 69.4581781 164.543503 64.8197763"></polygon>
                        <polygon id="Fill-25" fill="#000000" opacity="0.19905599" mask="url(#mask-4)" points="117.41366 99.781859 63.6646964 109.386285 62.8627307 104.779691 116.612479 95.1752652"></polygon>
                        <polygon id="Fill-26" fill="#000000" opacity="0.19905599" mask="url(#mask-4)" points="126.625436 110.758164 65.7945352 121.627753 64.9933542 117.02116 125.824255 106.152365"></polygon>
                        <polygon id="Fill-27" fill="#000000" opacity="0.19905599" mask="url(#mask-4)" points="121.673573 124.26567 67.9246093 133.870096 67.1226437 129.263503 120.872392 119.659077"></polygon>
                        <polygon id="Fill-28" fill="#000000" opacity="0.19905599" mask="url(#mask-4)" points="130.886134 135.241975 70.0552328 146.111565 69.2532672 141.504971 130.084953 130.635382"></polygon>
                        <polygon id="Fill-29" fill="#000000" opacity="0.19905599" mask="url(#mask-4)" points="133.015737 147.484159 72.1848362 158.353749 71.3836552 153.747155 132.214556 142.877566"></polygon>
                        <polygon id="Fill-30" fill="#000000" opacity="0.19905599" mask="url(#mask-4)" points="128.063796 160.991268 74.3148319 170.595694 73.5128662 165.9891 127.262615 156.38547"></polygon>
                        <polygon id="Fill-31" fill="#000000" opacity="0.19905599" mask="url(#mask-4)" points="137.276435 171.967971 76.4455339 182.83756 75.6435682 178.230966 136.475254 167.361377"></polygon>
                        <polygon id="Fill-32" fill="#000000" opacity="0.19905599" mask="url(#mask-4)" points="139.40596 184.209678 78.5750588 195.079267 77.7738778 190.472673 138.604779 179.603084"></polygon>
                        <polygon id="Fill-33" fill="#000000" opacity="0.19905599" mask="url(#mask-4)" points="158.833539 87.6301688 159.63472 92.2351721 142.400305 95.3149819 141.59834 90.7099785"></polygon>
                        <polygon id="Fill-34" fill="#000000" opacity="0.19905599" mask="url(#mask-4)" points="160.963064 99.8703648 161.76503 104.48332 148.318372 106.885619 147.515622 102.273459"></polygon>
                        <polygon id="Fill-35" fill="#000000" opacity="0.19905599" mask="url(#mask-4)" points="163.094158 112.118274 163.895339 116.723278 146.660924 119.803087 145.858959 115.198084"></polygon>
                        <polygon id="Fill-36" fill="#000000" opacity="0.19905599" mask="url(#mask-4)" points="165.223762 124.35847 166.024943 128.963474 153.037336 131.283867 152.236155 126.678864"></polygon>
                        <polygon id="Fill-37" fill="#000000" opacity="0.19905599" mask="url(#mask-4)" points="167.35415 136.598666 168.155331 141.20367 155.167724 143.524063 154.365759 138.91906"></polygon>
                        <polygon id="Fill-38" fill="#000000" opacity="0.19905599" mask="url(#mask-4)" points="169.483675 148.838862 170.284856 153.443866 157.297249 155.764259 156.495284 151.159256"></polygon>
                        <polygon id="Fill-39" fill="#000000" opacity="0.19905599" mask="url(#mask-4)" points="171.613278 161.078979 172.415244 165.691139 155.181614 168.770949 154.378078 164.158788"></polygon>
                        <polygon id="Fill-40" fill="#000000" opacity="0.19905599" mask="url(#mask-4)" points="173.744372 173.326968 174.545553 177.931971 165.927954 179.471478 165.127557 174.86727"></polygon>
                        <polygon id="Fill-41" fill="#000000" opacity="0.19905599" mask="url(#mask-4)" points="134.454097 197.717264 80.705133 207.32169 79.9031673 202.715096 133.652916 193.11067"></polygon>
                        <polygon id="Fill-42" fill="#000000" opacity="0.19905599" mask="url(#mask-4)" points="136.584406 209.95897 82.8354426 219.563396 82.0334769 214.956803 135.783225 205.352377"></polygon>
                        <path d="M168.210103,213.542778 C165.581351,213.557092 163.403017,212.481981 161.783392,210.364363 L164.71347,206.915581 C165.947022,208.288891 167.499948,209.279711 169.336935,208.951293 C170.798836,208.689672 171.304184,207.720323 171.123702,206.680202 C170.947929,205.671093 170.120853,205.167731 168.107307,204.648466 L166.761543,204.303349 C163.168391,203.386483 161.179171,201.172646 160.652636,198.14532 C160.086866,194.896928 161.708845,192.232212 164.297578,191.054521 L163.819694,188.311876 L167.773024,187.604943 L168.2564,190.378601 C169.620998,190.492315 170.874952,191.048955 172.372164,192.277539 L169.938802,195.996689 C168.635412,194.963724 167.990386,194.752996 167.054237,194.919988 C165.686501,195.16491 165.17566,196.10086 165.350648,197.109969 C165.553101,198.275733 166.628928,198.734563 168.8104,199.288022 L170.087895,199.613259 C173.377367,200.455376 175.261437,202.427472 175.799743,205.51921 C176.381207,208.863026 174.986791,211.550802 172.151662,212.772229 L172.635824,215.548272 L168.682494,216.25441 L168.210103,213.542778 Z" id="Fill-43" fill="#000000" opacity="0.2" mask="url(#mask-4)"></path>
                        <path d="M156.673254,191.309383 C156.780758,191.425482 157.07973,191.471603 157.107194,191.232248 L156.689733,190.874408 C156.680316,191.017544 156.688163,191.117739 156.673254,191.309383" id="Fill-44" fill="#FFE120" mask="url(#mask-4)"></path>
                        <path d="M158.169132,190.452077 C158.060843,190.122865 157.865452,189.634612 157.371874,189.484319 C157.648874,189.972572 157.447206,189.920089 157.827002,190.452873 C157.775211,190.649287 157.512336,190.675529 157.35618,190.551477 C157.440928,190.678709 157.100367,190.790038 157.353042,191.03973 C157.83014,190.966572 157.982373,190.724831 157.879577,190.250097 C158.016115,190.250097 158.094585,190.386076 158.169132,190.452077" id="Fill-45" fill="#FFE120" mask="url(#mask-4)"></path>
                        <path d="M174.53292,186.384868 L174.445818,186.294215 C174.464651,186.33318 174.495254,186.361807 174.53292,186.384868" id="Fill-46" fill="#FFE120" mask="url(#mask-4)"></path>
                        <path d="M182.058842,193.865076 C182.014898,193.792713 181.967816,193.776809 181.935644,193.787146 C181.989788,193.847582 182.037655,193.895294 182.058842,193.865076" id="Fill-47" fill="#FFE120" mask="url(#mask-4)"></path>
                        <path d="M182.36464,195.74477 C182.359932,195.704215 182.355224,195.670816 182.3513,195.634237 C182.333252,195.684335 182.329329,195.728866 182.36464,195.74477" id="Fill-48" fill="#FFE120" mask="url(#mask-4)"></path>
                        <path d="M174.53292,186.384868 L174.752636,186.618657 C174.824044,186.491425 174.653764,186.465978 174.53292,186.384868" id="Fill-49" fill="#FFE120" mask="url(#mask-4)"></path>
                        <path d="M158.953049,187.527968 C158.916168,187.59556 158.905967,187.67349 158.909891,187.757781 C158.937355,187.701322 158.967174,187.648043 159.000916,187.597946 C158.984437,187.574885 158.970313,187.553414 158.953049,187.527968" id="Fill-50" fill="#FFE120" mask="url(#mask-4)"></path>
                        <path d="M169.855388,186.040467 C169.827139,186.040467 169.79889,186.038876 169.77064,186.043648 C169.746315,186.101697 169.725128,186.17247 169.70551,186.251195 C169.754162,186.178832 169.805167,186.103288 169.855388,186.040467" id="Fill-51" fill="#FFE120" mask="url(#mask-4)"></path>
                        <path d="M166.318814,186.666766 C166.400423,186.665176 166.331369,186.228611 166.320383,186.032992 C166.314106,186.220659 166.274086,186.320854 166.21131,186.371747 C166.230142,186.454448 166.2631,186.549077 166.318814,186.666766" id="Fill-52" fill="#FFE120" mask="url(#mask-4)"></path>
                        <path d="M160.817502,188.367779 L160.773559,188.480697 C160.782975,188.448889 160.808085,188.406743 160.817502,188.367779" id="Fill-53" fill="#FFE120" mask="url(#mask-4)"></path>
                        <path d="M172.374204,186.294374 C172.369496,186.353219 172.372634,186.405702 172.380482,186.43751 C172.389898,186.389003 172.385974,186.341291 172.374204,186.294374" id="Fill-54" fill="#FFE120" mask="url(#mask-4)"></path>
                        <path d="M164.970146,176.937176 C164.969361,176.945128 164.975639,176.949104 164.976424,176.95467 C164.995257,176.939561 164.999965,176.930814 164.970146,176.937176" id="Fill-55" fill="#FFE120" mask="url(#mask-4)"></path>
                        <path d="M169.486735,176.597864 L169.424744,176.599454 C169.418466,176.60025 169.411404,176.602635 169.411404,176.602635 L169.486735,176.597864 Z" id="Fill-56" fill="#FFE120" mask="url(#mask-4)"></path>
                        <path d="M182.750871,199.100275 C182.75244,199.093914 182.753225,199.091528 182.754794,199.085167 C182.706143,199.003261 182.720267,199.050973 182.750871,199.100275" id="Fill-57" fill="#FFE120" mask="url(#mask-4)"></path>
                        <path d="M165.439869,219.175577 C165.763166,219.498429 164.845849,219.474573 165.342566,219.848317 C165.308039,219.719494 165.851053,219.408571 165.439869,219.175577" id="Fill-58" fill="#FFE120" mask="url(#mask-4)"></path>
                        <path d="M159.076405,187.496876 C159.116424,187.45314 159.158014,187.410994 159.205096,187.374415 C159.135257,187.41656 159.095237,187.45473 159.076405,187.496876" id="Fill-59" fill="#FFE120" mask="url(#mask-4)"></path>
                        <path d="M165.342566,219.848476 L165.341781,219.850861 L165.394356,219.886645 C165.373169,219.870741 165.360614,219.861994 165.342566,219.848476" id="Fill-60" fill="#FFE120" mask="url(#mask-4)"></path>
                        <path d="M182.337019,206.627877 C182.391948,206.630263 182.439815,206.613564 182.485327,206.595274 C182.455509,206.588117 182.414704,206.593684 182.337019,206.627877" id="Fill-61" fill="#FFE120" mask="url(#mask-4)"></path>
                        <path d="M183.564685,201.030067 L183.534867,201.178769 C183.558408,201.119129 183.563901,201.071417 183.564685,201.030067" id="Fill-62" fill="#FFE120" mask="url(#mask-4)"></path>
                        <path d="M181.543136,209.586578 C181.488206,209.647809 181.439555,209.651785 181.427784,209.768679 C181.445048,209.767089 181.459172,209.763113 181.474082,209.755956 C181.456034,209.701882 181.461526,209.645423 181.543136,209.586578" id="Fill-63" fill="#FFE120" mask="url(#mask-4)"></path>
                        <path d="M179.890945,212.327871 C179.919194,212.327076 179.945089,212.318329 179.972554,212.314353 C179.986679,212.284135 180.002373,212.249942 180.015713,212.219724 L179.890945,212.327871 Z" id="Fill-64" fill="#FFE120" mask="url(#mask-4)"></path>
                        <path d="M155.968278,182.084665 C156.078136,182.075122 156.170731,182.091821 156.253909,182.116473 C156.081275,182.037748 156.412419,181.617087 155.968278,182.084665" id="Fill-65" fill="#FFE120" mask="url(#mask-4)"></path>
                        <path d="M159.125448,187.717464 C159.064242,187.618064 159.050117,187.553653 159.076797,187.497194 C159.047763,187.529797 159.023437,187.56399 159.000681,187.598184 C159.038347,187.655438 159.079151,187.704741 159.125448,187.717464" id="Fill-66" fill="#FFE120" mask="url(#mask-4)"></path>
                        <path d="M183.584617,210.826772 C183.492022,210.991379 183.385302,211.145647 183.277798,211.299916 C183.382164,211.178251 183.499869,211.010463 183.584617,210.826772" id="Fill-67" fill="#FFE120" mask="url(#mask-4)"></path>
                        <path d="M150.064649,205.671968 L150.00815,205.550302 C150.007366,205.6004 150.02306,205.644136 150.064649,205.671968" id="Fill-68" fill="#FFE120" mask="url(#mask-4)"></path>
                        <path d="M182.466495,212.754973 C182.321325,212.779624 182.212251,212.833698 182.118872,212.90129 C182.125934,212.933893 182.126719,212.966496 182.147906,212.9991 L182.466495,212.754973 Z" id="Fill-69" fill="#FFE120" mask="url(#mask-4)"></path>
                        <path d="M156.25642,182.11687 L156.254066,182.116075 L156.25642,182.11687 Z" id="Fill-70" fill="#FFE120" mask="url(#mask-4)"></path>
                        <path d="M154.605799,189.368379 C154.594029,189.524238 154.521836,189.549684 154.455921,189.547299 C154.475538,189.478912 154.494371,189.397801 154.513204,189.287268 C154.505357,189.279316 154.493587,189.267388 154.484955,189.257846 C154.533606,189.29204 154.579119,189.327028 154.605799,189.368379 M151.938596,190.636723 C151.988032,190.523009 152.038253,190.377488 152.08612,190.221629 C152.198333,190.220833 152.290927,190.292401 152.254831,190.386235 C152.203041,190.312281 152.071996,190.519829 151.938596,190.636723 M152.247769,189.670555 L152.241491,189.668169 C152.268171,189.567179 152.289358,189.481297 152.302698,189.425633 C152.291712,189.476526 152.275233,189.547299 152.247769,189.670555 M158.74118,179.383847 C158.293115,179.669324 158.697236,179.742483 158.70116,179.934126 C158.239755,180.352401 158.335489,179.929355 158.066336,179.932535 C157.792475,180.223579 157.739115,180.628335 157.504489,180.798508 C157.455053,180.773857 157.398554,180.794532 157.40954,180.70547 C157.238475,181.114998 156.47339,181.547587 156.362747,182.125697 C156.315665,182.132059 156.281923,182.127287 156.256813,182.11695 C156.435725,182.170228 156.56677,182.274399 156.643671,182.365847 C156.48673,182.539996 156.503209,182.810364 156.284277,182.740387 C156.378441,182.634625 156.325082,182.57419 156.319589,182.479561 C156.288201,182.560671 156.248181,182.63542 156.226994,182.722892 C155.84092,182.690289 156.360393,182.397655 156.198745,182.253724 C155.921745,182.670409 155.839351,183.299412 155.537241,183.529225 C155.229637,183.403583 155.97275,182.778556 155.447785,183.002007 L155.89428,182.620311 C155.241408,182.661662 156.139107,182.362667 155.480742,182.35551 C154.924388,182.911355 155.060926,183.130035 154.525759,183.696217 C154.587751,183.939548 154.780788,183.795617 154.843564,184.038948 C154.579119,185.112468 153.674358,184.322039 153.6414,185.225387 C153.740272,185.514044 154.100451,185.786003 153.646893,186.173265 L153.380094,185.825763 C153.010499,186.461923 153.70653,186.446019 153.125066,187.010611 C153.041103,186.823739 153.25925,186.442838 153.166655,186.521563 C152.658168,186.831691 153.214522,186.930296 153.052873,187.268256 L152.69348,187.195892 C152.458854,187.938609 152.342718,188.810148 152.15125,189.635566 C152.06101,189.555251 151.997449,189.377921 151.827168,189.529804 C151.744775,190.071336 151.557231,190.610481 151.320251,191.135313 C151.110735,191.666507 150.8612,192.184977 150.619512,192.664483 L150.840798,193.125699 C150.814118,193.213966 150.653254,193.258497 150.615588,193.146374 C150.394302,193.512166 150.813333,193.213171 150.894158,193.430261 C150.872971,193.660073 150.6509,193.68711 150.581846,193.523299 C150.731724,194.292257 150.757619,195.613085 150.337804,196.304909 L150.259333,196.145869 C150.047464,196.709666 150.849429,196.889381 150.471988,197.38161 L150.42726,197.271872 C150.257764,197.886562 150.260118,198.555325 150.213036,199.179557 C150.165954,199.804584 150.064727,200.386671 149.823039,200.869357 C150.306416,201.057819 149.600968,202.133725 150.276597,202.206088 C149.935251,202.935287 149.83481,202.731715 149.6666,203.778994 C149.653543,204.058109 150.115733,204.158304 150.208328,204.487517 L149.856781,204.528072 L150.258549,204.951119 L149.871691,205.242162 L150.008229,205.5507 C150.010583,205.420287 150.127503,205.261247 150.231869,205.269199 C150.461002,205.737572 150.159676,206.505735 149.983118,206.551856 C150.138489,206.930372 150.287583,207.304911 150.490036,207.669112 C150.344081,207.673884 150.250702,207.488602 150.125149,207.350237 C150.626574,207.901311 149.785373,207.54188 150.245209,208.047628 C150.306416,207.952999 150.461787,208.042061 150.534764,208.03888 C150.393517,208.369684 150.541826,209.026519 150.750557,209.478192 L150.490036,209.455927 C150.595186,209.896468 150.787438,210.34178 150.980475,210.794249 C151.170373,211.249103 151.37518,211.708729 151.614514,212.166764 C151.559585,211.785863 151.986463,211.69521 152.148896,211.938541 L151.859341,212.204138 C152.15125,212.275706 151.855418,211.867769 152.279942,212.095991 C152.400786,212.447469 152.006081,212.512676 151.800489,212.366359 L152.118293,212.725789 C152.030406,212.801333 151.929964,212.730561 151.790287,212.769525 C152.082981,212.82678 151.802843,213.690367 152.301913,213.725356 L152.21952,213.804081 C152.490242,214.240645 152.715451,214.539641 152.929675,214.81478 C153.139191,215.0931 153.344783,215.343588 153.620213,215.660873 C153.887797,215.477182 154.031397,215.776177 154.383728,215.801623 C154.648958,216.350311 154.941652,217.004761 155.481527,217.512894 C155.952348,217.763382 155.773436,217.419855 156.062991,217.441326 C155.881725,217.692609 156.472606,218.13315 156.03945,218.052834 C156.759022,218.569714 156.931656,218.76931 157.998067,219.157367 C157.962755,218.990375 157.881146,218.874276 157.992574,218.827359 C158.182472,218.894156 158.300962,219.177247 158.205228,219.283009 L158.144806,219.279828 C158.758443,219.457158 159.301457,219.907241 159.833485,220.414579 C160.393763,220.832059 160.965026,221.277371 161.536289,221.111174 L161.474298,221.124692 L162.538354,221.098451 C162.977002,221.27419 162.216626,221.235225 162.508535,221.504798 C163.104909,221.391084 163.520016,221.47458 163.917076,221.59227 C164.31335,221.695646 164.694716,221.779142 165.154551,221.670199 C165.463724,222.149705 166.101687,222.124259 166.754559,222.098017 C167.407431,222.016907 168.076782,221.924663 168.568006,222.127439 L168.496598,221.935001 C168.720238,221.714731 168.798708,222.017702 168.983898,222.043148 C168.942309,221.892855 168.703759,221.892855 168.842652,221.769599 C169.846286,221.5541 170.8766,221.418916 171.941441,221.279756 C172.954491,221.15491 174.215508,220.857505 175.214434,220.372433 C175.950484,219.993918 175.079465,219.268695 176.156076,219.124764 L176.122334,219.580414 C177.180113,218.326383 178.666339,217.577305 179.441624,216.205585 C179.438486,216.326455 179.514602,216.402794 179.410236,216.507761 C179.83633,216.468001 180.202001,215.625089 180.049769,215.48911 C180.220049,215.327684 180.228681,215.574196 180.404454,215.534436 C180.738737,215.392095 180.666545,214.705837 180.962377,214.728898 C181.012598,214.732079 180.974148,214.853745 180.953746,214.913385 C180.981995,214.667668 181.567383,214.153969 181.209559,214.132498 C181.675672,213.773068 181.722754,213.174282 182.119028,212.901529 C182.009955,212.480073 182.780532,212.174716 182.419569,211.839937 C182.808782,212.13098 183.26077,211.181511 183.223105,210.756079 C183.298436,210.934999 183.494611,210.548532 183.612317,210.770393 C183.788875,210.395058 183.875977,210.014157 183.620164,209.969626 C184.502169,209.541808 183.790444,208.395925 184.648124,208.289368 C184.765829,207.673088 184.807418,207.058399 184.903937,206.491421 C184.980053,205.915696 185.008302,205.346333 185.080495,204.804802 C185.548177,204.939191 184.859993,206.000783 185.361418,206.080303 C185.385744,205.53241 185.327676,205.091869 185.304135,204.669618 C185.246852,204.236234 185.225665,203.82273 185.350432,203.313802 C185.451659,203.052181 185.54033,203.485565 185.610953,203.588146 C185.602322,203.052181 185.598398,202.535301 185.621155,202.032735 C185.654112,201.523807 185.610953,201.053048 185.444597,200.605351 C185.489325,200.604555 185.546608,200.700775 185.589766,200.792223 C185.561517,200.612507 185.632925,200.365995 185.412424,200.402575 L185.484616,200.574338 C185.182506,200.876514 184.763475,199.916707 184.59084,199.90796 C185.255483,200.145725 184.674804,199.008589 185.523067,199.393466 C185.468138,199.278957 185.337092,199.144568 185.194277,199.19069 C185.210755,199.01177 185.289225,198.943382 185.484616,199.099242 C185.2649,198.470238 185.064801,198.735835 184.980837,198.15852 C185.088342,198.141821 185.147979,198.251558 185.282163,198.291318 C185.021642,198.030493 184.792509,197.777619 184.772891,197.279824 C184.844299,197.294138 184.913353,197.220184 184.947095,197.36491 C184.830175,196.953792 184.60575,196.634122 184.409574,196.305704 C184.217322,195.974901 184.049396,195.637736 183.983481,195.17493 C184.524926,195.281486 184.029778,194.826632 184.401727,194.63976 L184.120019,194.2024 L183.999175,194.465611 C183.929337,194.256473 183.795937,194.087891 183.674308,193.92408 C183.538555,193.765835 183.422419,193.610771 183.406725,193.412766 L183.697849,193.640193 L183.285096,192.922923 L183.334532,193.411176 C182.957875,193.103433 182.876266,193.675182 182.744436,193.109795 C182.828399,193.195677 182.578079,192.720942 182.691076,192.405248 L182.693431,192.406043 C182.468221,192.284377 182.238303,192.169073 182.169249,191.843837 C182.243796,191.703086 182.602405,191.662531 182.651841,191.569493 C182.241442,191.569493 182.065669,190.719424 181.57523,190.735328 C181.699997,190.755208 181.886757,190.631157 181.906374,190.580264 L181.565813,190.60412 C181.524224,190.387825 181.542272,190.336137 181.70549,190.255822 C181.39161,189.728604 181.383762,190.739304 181.150706,190.016467 C181.202496,190.04748 181.221329,189.998177 181.32491,190.066565 C181.020445,189.376331 180.287533,189.127433 179.968944,188.523081 C180.150211,188.056299 180.435842,188.883307 180.551978,188.450718 C180.212202,188.092878 179.728825,187.861475 179.290177,187.612577 C179.066537,187.491707 178.86016,187.354932 178.650645,187.231676 C178.435636,187.113987 178.237891,186.982779 178.065257,186.823739 L178.1759,186.96767 C177.696447,187.450356 177.810229,186.27346 177.230334,186.296521 C177.355101,186.309244 177.553631,186.050009 177.487716,186.099312 C176.968243,185.702507 176.272212,185.526768 175.292904,185.402716 L175.470247,185.281051 C175.179907,184.986827 174.589026,184.784846 174.210799,184.613083 C174.041304,184.757014 173.82708,184.663975 173.889856,184.965356 C173.663862,184.62342 173.385293,184.438139 173.094953,184.34351 C172.79912,184.277508 172.489947,184.306931 172.190976,184.34351 C171.89122,184.384065 171.603234,184.415873 171.325449,184.40474 C171.045311,184.403945 170.776943,184.32363 170.505436,184.071551 C170.638835,184.075527 170.832656,183.914102 170.725152,183.906945 L169.763892,184.043719 C169.844716,184.390427 169.892583,184.257628 170.087974,184.531972 C169.969484,184.726796 169.718379,184.874704 169.496308,184.90174 C169.895722,184.644095 169.47826,184.349076 169.2813,184.16618 C169.316612,184.270351 169.260898,184.391222 169.2813,184.497779 C168.757119,183.912511 169.245204,185.201531 168.56879,184.831763 L168.585269,184.646481 C168.348289,184.7594 168.155252,185.006707 167.893947,185.005912 C167.730728,184.617854 168.122295,184.772918 168.097184,184.440524 C167.724451,184.517659 167.492179,185.325582 167.099828,184.973308 C167.234012,184.834148 167.456083,184.795979 167.594975,184.659204 C167.157896,184.239339 167.130431,184.366571 166.8448,184.333967 L166.873834,184.341124 C166.650194,184.306135 166.42263,184.251267 166.195851,184.235363 L166.384179,184.328401 C166.154262,185.504502 165.480202,184.738724 165.063526,185.596745 C165.462154,184.780075 165.054109,185.188012 164.966223,184.713278 C164.772401,184.628191 164.485985,184.567756 164.515803,184.415078 C164.336891,184.879475 163.916291,184.28387 163.683234,184.95979 C163.611042,184.812678 163.364645,185.056009 163.293237,184.666361 C162.954246,184.93991 163.481566,184.883451 163.515308,185.08066 C163.322271,185.448838 162.935413,185.437705 162.506966,185.468718 C162.083227,185.499731 161.631238,185.631734 161.409952,186.159747 C160.904604,186.842824 161.05919,187.334257 160.693519,187.96326 C160.359236,187.90044 160.502836,187.38356 160.502836,187.38356 C160.066542,187.430476 159.839763,187.633252 159.696947,188.022105 C159.661635,187.867836 159.53059,187.828872 159.328922,187.772412 C159.134316,188.009382 159.563548,188.325076 159.131961,188.426067 C159.051922,188.250328 158.919307,187.986321 158.909891,187.758099 C158.73961,188.111168 158.716069,188.585902 158.580316,188.941356 C158.309594,188.832414 158.414744,188.497635 158.380217,188.27816 C158.172271,188.669398 157.855251,189.288064 158.13539,189.648289 C158.226415,189.608529 158.315086,189.567974 158.41082,189.535371 C158.336273,189.660217 158.069475,189.367584 158.078106,189.230014 C158.040441,188.734604 158.51597,188.927043 158.643877,189.020876 L158.559914,189.283292 C158.993854,189.477321 159.110775,189.27375 159.199446,188.976345 C159.277916,188.671784 159.326568,188.262256 159.539222,188.116734 L159.839763,188.753689 C159.83427,188.507177 159.835055,188.255099 159.842902,187.996659 C160.038293,188.057094 160.326278,188.303606 160.218774,188.5366 C160.67704,188.566022 160.299598,188.155699 160.756295,188.267027 C160.816717,188.294064 160.824564,188.328257 160.817502,188.368017 L160.957964,188.006996 C160.990136,188.16047 161.278122,188.36086 161.064683,188.402211 C161.722264,188.368812 161.562969,187.459899 162.009465,187.762075 L161.989847,187.8241 C162.567388,187.214182 161.796026,187.354137 162.07538,186.539852 C162.392399,186.831691 162.698433,187.1283 162.992696,187.429681 L162.848311,186.948585 C162.927566,186.920753 163.096277,186.887355 163.151206,187.079793 C163.29873,186.64959 163.012314,186.90644 163.04998,186.544624 C163.600841,186.794316 164.026149,185.89256 164.384758,186.612216 C164.401237,186.216206 163.917076,186.468284 164.247435,186.085793 C164.635078,186.834872 164.685299,185.788388 165.15769,186.03172 C165.168676,186.478622 164.781818,186.37286 165.234591,186.620963 C165.23773,185.840076 165.96201,186.58836 166.211545,186.372065 C166.096194,185.813835 166.807134,185.960947 167.292865,185.704892 C167.292865,185.907668 168.315332,185.808268 168.796354,185.999116 L168.790861,186.092155 C168.830096,185.530744 169.335445,185.593564 169.693269,185.448838 C169.686991,185.777256 169.625784,185.91244 169.443733,186.077841 L169.77017,186.043648 C169.843932,185.861547 169.946728,185.778051 170.163305,185.720001 L170.079342,186.123963 C170.500727,186.120782 170.986458,185.638096 171.526333,185.97208 C171.610296,185.615035 171.157523,184.877089 171.827659,184.733158 C171.828443,184.934344 171.807257,185.273894 171.636191,185.331148 C171.691121,185.312859 171.846492,185.195964 171.943795,185.295364 L171.655024,185.591179 C171.898282,185.77328 171.827659,185.334329 172.037174,185.396355 C171.993231,185.674675 172.164296,185.61742 172.09995,185.83292 C172.044237,185.853595 171.935163,185.692964 171.840999,185.791569 C172.068562,185.87427 172.322806,186.075456 172.374596,186.294136 C172.382443,186.135891 172.441296,185.924368 172.619423,185.91244 C173.061211,185.97367 172.701032,186.268689 172.916041,186.461128 C173.061995,186.301292 173.281712,186.558142 173.392355,186.166108 C173.518692,186.200302 173.490443,186.388764 173.509276,186.506454 C173.64189,186.4492 173.903981,186.494526 174.114281,186.51043 C174.318304,186.541443 174.481522,186.525539 174.430516,186.278232 L174.383434,186.23052 C174.396774,186.226544 174.408544,186.231315 174.425023,186.228134 L174.423454,186.227339 L174.425023,186.228134 C174.848762,186.182012 175.211295,186.386379 175.548717,186.605854 C175.872014,186.865089 176.167062,187.14659 176.543719,187.251556 L176.480158,187.360499 C176.961181,187.432067 177.362948,187.838414 177.795319,187.797859 C177.908316,187.877379 177.928719,188.159675 177.792965,188.242376 C178.130387,188.364836 178.233183,188.312353 178.490565,188.785497 C178.093506,188.717905 178.460747,189.004177 178.123325,188.670988 C178.396401,189.043937 178.339118,189.240352 178.923721,189.3151 C178.603563,189.420862 178.896256,189.819257 179.09714,189.913886 L179.037503,189.536166 C179.23054,189.680097 179.354523,189.851861 179.48086,190.023624 L179.116758,190.207315 C179.250157,190.68523 179.670758,190.832342 180.013672,191.052613 C180.362865,191.257774 180.69087,191.479635 180.562964,191.97743 C180.920788,192.028323 180.438196,191.467707 180.812499,191.470093 C181.026723,191.848608 180.766987,192.527709 180.838394,192.628699 C180.936482,193.217942 181.614465,192.797281 181.740017,193.424694 C181.82555,193.295872 182.108043,193.061288 182.418,193.435827 C182.560031,193.860464 182.138646,194.150712 181.929131,193.952707 C181.875771,193.865235 181.893034,193.802414 181.935408,193.787305 C181.834182,193.682339 181.707845,193.545565 181.648992,193.760269 L181.791808,193.752317 C181.75885,194.001214 182.015448,194.516504 181.759635,194.479925 C182.008385,194.714509 182.016232,194.518889 181.978567,194.276353 C182.044482,194.832994 182.271261,195.071554 182.3513,195.63376 C182.390535,195.527998 182.508241,195.398381 182.53649,195.482672 C182.647918,196.314451 182.915501,195.740317 183.116385,196.274691 C183.003388,196.642074 182.631439,196.294571 182.930411,196.797933 C182.884898,197.16611 182.612606,196.954587 182.478422,196.854392 C182.839385,197.2838 182.56317,197.801475 182.563955,198.086952 C182.516873,198.006637 182.466652,197.928707 182.408584,197.852368 C182.513734,197.988347 182.520011,198.12035 182.544337,198.248378 L182.774255,198.049578 C182.754637,198.212594 182.77504,198.343006 182.66832,198.359706 C182.861357,198.489323 183.072442,198.156134 183.35258,198.437635 C183.256847,198.669038 183.595053,199.060277 183.267048,199.181147 C183.276464,198.508408 182.937473,199.302018 182.794657,198.762077 C182.85194,198.861477 182.871558,198.990299 182.851156,199.15093 C182.816629,199.179557 182.777394,199.139797 182.750714,199.100037 C182.535705,199.756077 183.20898,199.325078 183.248215,199.986685 C183.05047,199.923069 182.895884,200.173557 182.943751,200.274547 C182.928841,200.013722 183.255277,200.117098 183.420065,200.350887 C183.301575,200.785861 183.565235,200.804151 183.56445,201.029987 L183.61624,200.769957 C183.81477,200.844706 183.805354,201.062591 183.887747,201.360791 C183.740223,201.391803 183.764549,201.092808 183.706481,201.202546 C184.087062,201.532554 183.358858,201.945263 183.585637,202.39137 C183.451453,202.592555 183.225459,202.396141 183.133648,202.569495 C183.383968,203.077627 182.824476,203.071266 182.977493,203.600074 C183.250569,203.487951 183.192501,203.4466 183.393385,203.852152 L183.324331,202.971071 L183.623303,203.56588 C183.65783,203.301079 183.542478,202.993336 183.59113,202.840658 C183.781028,203.123749 183.70962,203.094327 183.942676,202.983794 C183.511875,203.309031 184.070583,203.740029 183.757487,204.132858 L183.132864,204.016759 C182.760915,204.565447 183.240368,205.166618 182.879405,205.924444 C182.939827,205.851285 183.007311,205.778922 183.063025,205.702583 C183.278034,205.878322 182.942966,206.199583 182.961799,206.48506 C182.767977,206.396792 182.643994,206.531181 182.485484,206.595592 C182.637717,206.633762 182.301079,207.157799 182.652626,207.374093 L182.253997,207.614244 C181.894604,208.17645 182.544337,208.569279 182.177881,209.127509 C182.057037,208.85078 181.792592,209.047989 181.833397,208.59234 C181.737663,208.783188 181.618388,208.937456 181.748649,209.005048 C181.57523,209.056736 181.740017,209.670631 181.474003,209.756512 C181.515592,209.881359 181.702352,210.017338 181.562675,210.220909 C181.510884,210.2225 181.470864,210.168426 181.470864,210.168426 C181.562675,210.220114 181.402595,210.571593 181.714907,210.501615 C181.254287,210.630437 181.042417,211.043146 180.820346,211.447108 C180.586505,211.840732 180.365219,212.238332 179.972868,212.313876 C179.765707,212.744874 179.460457,213.231537 179.216415,213.587786 C179.183457,213.525761 179.134806,213.520194 179.201506,213.469301 C178.690664,213.812033 179.440055,214.143631 178.831126,214.524532 C178.34775,214.558725 178.926075,214.128522 178.687526,214.205657 C178.09743,213.804081 178.242599,214.899866 177.615622,214.927698 L177.66192,214.821937 C177.248382,214.887143 177.282909,215.621908 176.823858,215.956687 C176.823858,215.956687 176.801886,215.892276 176.755589,215.874782 C176.71243,216.394842 176.247102,216.991242 175.861813,217.391228 C175.82964,217.065991 175.967748,217.123246 175.715858,216.962615 C175.548717,217.14233 176.048572,217.276719 175.706442,217.641716 C175.491433,217.621836 175.13204,217.721236 174.923309,217.488242 C175.046507,217.407927 175.161859,217.310913 175.276425,217.213898 C174.875442,217.046111 174.813451,217.552654 174.57804,217.627402 L174.51134,217.467567 C173.984021,217.885047 174.185689,218.257996 173.516338,218.571305 L173.640321,218.652415 C173.459055,219.231321 173.244046,218.599932 172.996865,219.033316 L172.728497,218.66991 C172.62727,218.761358 172.463268,218.95141 172.24512,219.129535 C172.019911,219.299708 171.764098,219.476242 171.537319,219.583594 C171.714662,219.183609 172.245905,218.898927 172.462483,218.583233 C172.255322,218.685814 171.638546,218.87189 171.565568,219.122378 C171.657378,219.053196 171.75782,218.913241 171.87788,218.94982 C171.660517,219.372071 171.276013,219.655958 170.741631,219.757743 C170.667084,218.920398 169.326028,219.816588 168.8607,219.184404 C168.422836,219.382409 167.961431,219.411036 167.486686,219.345034 C167.010372,219.30607 166.525426,219.198718 166.00046,219.194742 C166.348868,219.879409 165.691287,219.202694 165.715613,219.894518 C165.457446,219.931892 165.362497,219.893722 165.343664,219.850782 L164.629585,219.355372 C164.480492,219.135897 164.883044,219.22973 164.877551,219.073076 C164.357294,218.956182 164.690792,218.768514 164.381619,218.525978 C164.413007,218.785214 164.146993,218.840082 163.871563,218.688199 L164.231741,219.086594 C163.428991,219.28778 163.708345,218.424193 162.926781,218.572895 L163.201427,218.426578 C163.007606,218.435326 162.678031,218.336721 162.331977,218.291394 C161.982785,218.250044 161.641439,218.19438 161.358946,218.39477 C161.325204,218.294575 161.315003,218.084642 161.487638,218.098956 C161.076454,217.912879 160.578952,217.814274 160.096361,217.691018 C159.601998,217.594799 159.187675,217.365782 158.979729,217.034978 L159.132746,216.930012 C158.966389,216.879914 158.703514,217.033388 158.623474,216.774153 C158.675265,216.722465 158.77963,216.673162 158.721562,216.620679 C158.62112,216.612727 158.195027,216.570582 158.08203,216.34554 L158.349613,216.317708 C157.805815,215.60998 157.031314,215.762658 156.390997,215.276791 C156.744113,214.946783 156.434155,214.283586 156.28977,213.956759 L156.353331,213.920975 C156.208946,213.708657 156.046512,213.535303 155.876232,213.377058 C155.723215,213.2045 155.557643,213.052617 155.383439,212.904709 C155.05151,212.601738 154.624632,212.346479 154.346847,211.93218 C154.45749,211.522652 154.291133,211.03917 154.072986,210.527061 C153.901921,209.991892 153.710454,209.405829 153.693975,208.900877 C153.65474,209.06946 153.309471,208.998687 153.201182,208.843623 C153.223154,208.596316 152.70525,208.302092 153.158023,208.218596 L153.168225,208.302887 C153.568423,208.009458 153.343213,207.58164 153.268666,207.215053 L152.659738,207.285031 C152.952431,206.713282 152.815893,206.08746 152.627565,205.510144 C152.538109,205.221487 152.446299,204.944757 152.423542,204.701426 C152.418834,204.454914 152.476902,204.242595 152.664446,204.089917 C152.496519,203.86249 152.478471,203.563495 152.310545,203.332091 L152.636196,203.32573 C152.660522,202.657762 152.700542,202.326959 152.630704,201.499951 L152.862191,201.667738 C152.883378,201.208112 151.92761,201.072133 151.908777,200.629207 L152.392154,200.512312 C152.42982,199.686099 152.898287,198.898851 152.531831,198.049578 C152.600885,198.070253 152.735854,198.108422 152.738992,198.242016 C152.800199,197.857934 153.246695,196.809066 152.577344,196.855982 C153.009715,196.906875 152.70525,196.019432 152.621287,195.546288 L152.918689,195.668749 C152.591468,195.229003 152.486318,195.19481 152.474548,194.650893 C152.537324,194.534793 152.740562,194.592048 152.631488,194.739955 C152.869253,194.362235 152.400001,194.358259 152.657383,193.891477 L152.818247,194.121289 C152.916335,193.702219 152.820601,193.717328 152.646398,193.431056 C152.590684,193.136832 152.921828,192.650965 153.208244,192.662893 C153.055227,192.563493 152.89044,192.273245 153.030117,192.046613 C153.14076,192.041841 153.181565,192.149989 153.201967,192.203267 C153.56136,191.561541 153.160378,191.073288 153.583332,190.68523 C153.682989,190.707496 153.741057,190.692387 153.781862,190.662965 C153.608443,191.204496 153.456995,191.637085 153.447579,191.589373 C153.722224,191.669688 153.901136,191.251413 154.172643,191.709448 C154.069063,191.305486 153.81325,190.560384 154.068278,190.173917 C154.100451,190.161989 154.131839,190.150856 154.177352,190.149265 L154.19383,190.204134 C154.249544,190.115072 154.251898,190.018853 154.231496,189.919453 C154.321737,189.801763 154.386867,189.73099 154.437088,189.605348 C154.670145,189.637156 154.731351,189.164808 154.818453,188.956465 C154.532037,188.861836 154.681915,188.59942 154.35391,188.768003 C154.386867,188.742556 154.371958,188.822076 154.330369,188.969188 C154.32723,189.004177 154.317029,189.043937 154.326445,189.071769 L154.306827,189.047913 C154.259745,189.189459 154.196969,189.37474 154.126346,189.585468 C154.043952,189.363608 153.992162,189.137771 154.236989,188.962032 C154.098097,188.780726 153.959989,188.583516 153.901136,188.47855 C154.404131,188.340185 154.81296,187.863065 155.088391,187.90044 C155.233561,187.214182 155.609433,186.361728 155.390501,185.737496 C155.430521,185.529948 155.633759,185.613444 155.738909,185.591179 C155.730277,185.717616 155.658085,185.831329 155.694966,185.921982 C155.766374,185.512454 156.204237,184.87868 155.955487,184.600359 C156.359609,184.273532 156.06613,185.005116 156.399628,184.415078 L156.436509,184.551057 C156.73705,184.359414 156.9089,184.124035 157.031314,183.860028 C157.09252,183.728025 157.140387,183.588865 157.185115,183.446524 L157.349118,183.047334 C157.563342,182.504212 157.855251,181.935644 158.630537,181.684361 C158.530095,181.725711 158.479874,181.747182 158.431222,181.722531 C158.789831,181.48238 159.120976,181.205651 159.464675,180.936078 C159.799743,180.654577 160.130887,180.361943 160.486358,180.101118 C160.831627,179.824388 161.194159,179.570719 161.575524,179.360786 C161.947473,179.132564 162.346102,178.963186 162.747869,178.826412 C163.189657,178.640335 163.188872,178.513103 163.41879,178.30158 L163.573376,178.397799 C163.700498,178.270567 163.830758,178.144926 163.964942,178.024055 C164.602121,177.664625 165.203203,177.830026 166.007522,177.36881 L165.878047,177.340183 C166.191927,177.24953 166.864417,177.017332 166.825967,177.096852 C166.85657,177.078562 166.918562,177.018922 167.048038,177.012561 L167.065301,177.045959 C167.317975,176.94974 167.579281,176.887714 167.839017,176.814556 C168.454224,176.719132 167.756624,176.927474 168.648045,176.744578 C168.976051,176.65313 169.600674,176.583153 169.474337,176.601442 C169.337799,176.61019 169.125929,176.626889 169.114943,176.620527 L169.424901,176.599057 C169.47983,176.588719 169.723872,176.607804 168.953295,176.55214 C168.775167,176.549754 168.59704,176.562478 168.419697,176.575996 L168.243139,176.557706 C168.393802,176.549754 168.545249,176.548959 168.695912,176.549754 C168.43696,176.525898 168.275312,176.548164 168.095615,176.575996 C168.050887,176.561682 167.973201,176.551345 167.864128,176.547369 C167.692278,176.579972 167.520428,176.622118 167.350933,176.67142 C167.279525,176.639612 167.575357,176.580767 167.215964,176.587924 C166.978199,176.660287 167.467069,176.641202 167.067655,176.727084 C166.80478,176.718337 166.868341,176.661878 166.578001,176.74935 C166.528565,176.723903 166.588202,176.694481 166.705123,176.667444 C166.443032,176.730265 165.999675,176.791495 165.88197,176.892486 C165.590846,176.847954 165.001534,177.124684 164.976424,176.955306 C164.901877,177.006994 164.5519,177.195457 164.318843,177.282929 C164.681376,176.938607 163.41722,177.535007 163.436838,177.262254 C163.197504,177.576358 162.307651,177.760844 161.821921,178.147311 C161.843108,178.113913 161.883912,178.047116 161.939626,178.039164 C161.615544,178.151287 161.484499,178.114708 161.260074,178.16401 C161.333836,178.395414 160.88891,178.683276 160.721768,178.95603 C160.224267,178.933764 160.790037,178.575924 160.555411,178.431993 C160.671547,178.591033 160.01946,178.960801 160.242315,179.047478 C159.881352,179.074514 159.964531,179.122226 159.696162,179.014079 C159.838193,179.332954 159.466245,179.212084 159.362664,179.531754 C158.878503,179.649444 159.067616,179.321026 158.706653,179.699542 C158.433577,179.744073 158.74118,179.383847 158.74118,179.383847" id="Fill-71" fill="#FFE120" mask="url(#mask-4)"></path>
                        <path d="M154.330682,188.969268 C154.332252,188.946207 154.324405,188.930303 154.332252,188.902471 C154.29694,188.921556 154.265552,188.940641 154.237303,188.962111 L154.307141,189.047993 C154.314204,189.020956 154.322835,188.993919 154.330682,188.969268" id="Fill-72" fill="#FFE120" mask="url(#mask-4)"></path>
                        <path d="M174.430202,186.27847 L174.445896,186.294374 C174.435695,186.274494 174.426279,186.254614 174.424709,186.228373 C174.430987,186.249843 174.427063,186.261771 174.430202,186.27847" id="Fill-73" fill="#FFE120" mask="url(#mask-4)"></path>
                        <polygon id="Fill-74" fill="#FFE120" mask="url(#mask-4)" points="149.774937 204.537774 149.856546 204.528231 149.779645 204.444735"></polygon>
                        <path d="M169.281379,184.16618 C169.268039,184.129601 169.245282,184.092227 169.200554,184.062804 C169.205262,184.089841 169.239789,184.12642 169.281379,184.16618" id="Fill-75" fill="#FFE120" mask="url(#mask-4)"></path>
                        <path d="M166.844486,184.333967 L166.474106,184.234567 C166.639678,184.298183 166.754245,184.322835 166.844486,184.333967" id="Fill-76" fill="#FFE120" mask="url(#mask-4)"></path>
                        <path d="M164.950999,184.521078 C164.948645,184.601393 164.958062,184.659443 164.966693,184.713516 L164.970617,184.715107 L164.950999,184.521078 Z" id="Fill-77" fill="#FFE120" mask="url(#mask-4)"></path>
                        <path d="M185.590002,200.792063 C185.593141,200.81751 185.599418,200.842161 185.60805,200.864427 C185.678673,201.033804 185.64807,200.917705 185.590002,200.792063" id="Fill-78" fill="#FFE120" mask="url(#mask-4)"></path>
                        <path d="M182.693352,192.406282 C182.793009,192.458765 182.873049,192.52079 182.947596,192.592358 C182.906006,192.436499 182.855785,192.323581 182.693352,192.406282" id="Fill-79" fill="#FFE120" mask="url(#mask-4)"></path>
                        <polygon id="Fill-80" fill="#FFE120" mask="url(#mask-4)" points="183.616005 210.773573 183.612081 210.770393 183.584617 210.826852"></polygon>
                        <path d="M183.114031,192.969681 C183.104614,192.798713 183.03713,192.683409 182.947674,192.591961 C182.982986,192.719988 183.017513,192.871871 183.114031,192.969681" id="Fill-81" fill="#FFE120" mask="url(#mask-4)"></path>
                        <path d="M157.680184,188.843467 L157.603283,188.910264 C157.628394,188.927759 157.643303,188.946843 157.652719,188.964338 L157.680184,188.843467 Z" id="Fill-82" fill="#FFE120" mask="url(#mask-4)"></path>
                        <path d="M157.652641,188.964576 L157.62753,189.084652 C157.656564,189.042506 157.683244,189.008312 157.652641,188.964576" id="Fill-83" fill="#FFE120" mask="url(#mask-4)"></path>
                        <path d="M157.585156,189.343966 L157.62753,189.084731 C157.580448,189.150733 157.511394,189.224686 157.585156,189.343966" id="Fill-84" fill="#FFE120" mask="url(#mask-4)"></path>
                        <path d="M159.721665,187.09188 L159.64398,186.942383 C159.651827,186.979757 159.676152,187.028264 159.721665,187.09188" id="Fill-85" fill="#FFE120" mask="url(#mask-4)"></path>
                        <path d="M160.333184,186.571581 C160.156626,186.644739 159.740733,186.574762 159.583793,186.822864 L159.644215,186.942144 C159.601841,186.6678 160.346524,186.897613 160.333184,186.571581" id="Fill-86" fill="#FFE120" mask="url(#mask-4)"></path>
                        <path d="M163.977733,186.925365 L163.400192,187.033513 C163.564195,187.153588 163.771356,187.318194 163.555563,187.458149 C164.405396,187.655359 163.266008,187.159154 163.977733,186.925365" id="Fill-87" fill="#FFE120" mask="url(#mask-4)"></path>
                        <path d="M165.731072,186.58987 C165.454857,186.743344 165.800126,186.829226 165.807973,186.927035 C165.952358,186.72744 165.990808,186.677342 165.731072,186.58987" id="Fill-88" fill="#FFE120" mask="url(#mask-4)"></path>
                        <path d="M177.82655,188.412469 L177.610757,188.644667 C177.821842,188.748839 177.688443,188.546858 177.82655,188.412469" id="Fill-89" fill="#FFE120" mask="url(#mask-4)"></path>
                        <polygon id="Fill-90" fill="#FFE120" mask="url(#mask-4)" points="180.767614 189.052764 180.732303 188.732298 180.450595 188.828518"></polygon>
                        <polygon id="Fill-91" fill="#FFE120" mask="url(#mask-4)" points="180.072604 191.56488 179.977655 191.510012 180.297028 191.753343"></polygon>
                        <path d="M179.985972,211.702367 L180.306131,211.831985 C180.34772,211.660221 180.050318,211.420866 179.985972,211.702367" id="Fill-92" fill="#FFE120" mask="url(#mask-4)"></path>
                        <path d="M173.503783,218.357078 C173.335856,218.241774 173.074551,218.277558 172.999219,218.477153 C173.193041,218.434212 173.428451,218.439779 173.503783,218.357078" id="Fill-93" fill="#FFE120" mask="url(#mask-4)"></path>
                        <path d="M152.999592,206.734673 L153.162025,206.892122 C153.100819,206.785566 153.039612,206.679009 152.993314,206.56609 C152.995669,206.62255 152.994099,206.679804 152.999592,206.734673" id="Fill-94" fill="#FFE120" mask="url(#mask-4)"></path>
                    </g>
                </g>
            </g>
        </g>
    </g>
</svg>