<?xml version="1.0" encoding="UTF-8"?>
<svg width="292px" height="235px" viewBox="0 0 292 235" version="1.1" xmlns="http://www.w3.org/2000/svg" xmlns:xlink="http://www.w3.org/1999/xlink">
    <title>96B5C120-8E4A-474B-8673-F02EBC1C0333@1x</title>
    <defs>
        <rect id="path-1" x="0" y="0" width="292" height="235"></rect>
        <rect id="path-3" x="0" y="0" width="272.99999" height="215.279992"></rect>
    </defs>
    <g id="Spot" stroke="none" stroke-width="1" fill="none" fill-rule="evenodd">
        <g id="Oval">
            <mask id="mask-2" fill="white">
                <use xlink:href="#path-1"></use>
            </mask>
            <g id="Mask"></g>
            <g id="Cash_Pickup-1" mask="url(#mask-2)">
                <g transform="translate(10.000000, 24.000000)">
                    <mask id="mask-4" fill="white">
                        <use xlink:href="#path-3"></use>
                    </mask>
                    <g id="Mask" stroke="none" fill="none"></g>
                    <g id="Cash_Pickup-1" stroke="none" stroke-width="1" fill="none" fill-rule="evenodd" mask="url(#mask-4)">
                        <path d="M259.954334,125.139919 C259.954334,162.875226 246.047247,194.651489 222.219028,216.50662 L51.3878021,216.50662 C27.519803,194.651489 13.652191,162.875226 13.652191,125.139919 C13.6204684,110.361334 16.11479,95.6860049 21.0277072,81.747897 C21.5209792,80.3582491 22.0381192,78.9765571 22.5791272,77.6028212 C22.7939392,77.0538572 23.0087512,76.5128492 23.2394751,75.9638852 C25.324461,70.8797627 27.7430474,65.9389363 30.4794349,61.1736818 C51.6105701,24.4408311 90.6983967,0 136.843195,0 C206.32294,0 259.954334,55.612438 259.954334,125.139919 Z" id="Path" fill="#FFE640"></path>
                        <path d="M77.0061212,157.85499 C76.9837657,157.885371 76.9569421,157.912195 76.9265612,157.93455 C76.941388,157.908843 76.9546715,157.882276 76.9663412,157.85499 L77.0061212,157.85499 Z M76.8151772,158.022066 L76.7276612,158.085714 L76.8151772,158.022066 Z M52.3504781,114.8369 L52.6209821,114.685736 C52.1645927,114.944421 51.6944971,115.178141 51.2127701,115.385864 L51.2127701,115.385864 C51.437946,115.296528 51.6583557,115.195617 51.8731181,115.083536 C52.0378314,115.012634 52.1973462,114.930218 52.3504781,114.8369 Z M51.2048141,115.385864 L51.2048141,115.385864 L51.1013861,115.425644 L51.2048141,115.385864 Z M48.0940182,116.181464 L48.1894902,116.181464 C47.810947,116.21388 47.4303255,116.21388 47.0517823,116.181464 L47.2347703,116.181464 C47.5213926,116.193532 47.8085079,116.185557 48.0940182,116.157596 L48.0940182,116.181464 Z M45.7549543,115.799576 L45.6276583,115.727972 L45.7310863,115.783664 L45.7549543,115.799576 Z M50.4251262,115.696148 C50.2103142,115.767752 50.0114142,115.8314 49.8045582,115.887092 L50.4251262,115.696148 Z M49.3908462,115.982564 C49.1967893,116.03046 49.0002443,116.067644 48.8021022,116.093948 C49.000854,116.057166 49.1974057,116.009357 49.3908462,115.95074 L49.3908462,115.982564 Z M53.1619901,114.391364 L53.607526,114.096992 C53.750734,113.993564 53.893942,113.890136 54.029194,113.778752 L54.426994,113.452556 L54.737278,113.174096 C54.1555745,113.698468 53.5240535,114.164781 52.8517061,114.566396 C52.9551341,114.486836 53.0665181,114.423188 53.1619901,114.351584 L53.1619901,114.391364 Z M19.0227953,41.6019225 C19.0272159,41.6389189 19.0272159,41.6763101 19.0227953,41.7133065 C19.0272159,41.6763101 19.0272159,41.6389189 19.0227953,41.6019225 L19.0227953,41.6019225 L19.0227953,41.6019225 C19.0531551,41.5271814 19.0771093,41.4499957 19.0943993,41.3711985 C19.0980906,41.4108929 19.0980906,41.4508441 19.0943993,41.4905385 C19.0976142,41.5062881 19.0976142,41.5225249 19.0943993,41.5382745 C19.0976733,41.5566941 19.0976733,41.5755468 19.0943993,41.5939665 L19.0943993,41.5939665 L19.0227953,41.6019225 Z M19.0227953,40.6710705 C19.0319159,40.7049433 19.0319159,40.7406257 19.0227953,40.7744985 C19.0387602,40.9199216 19.0387602,41.0666553 19.0227953,41.2120785 C19.0387602,41.0666553 19.0387602,40.9199216 19.0227953,40.7744985 C19.0227953,40.7744985 19.0227953,40.6949385 19.0227953,40.6710705 L19.0227953,40.6710705 Z M18.8398073,42.2543145 C18.8754401,42.1871842 18.8996394,42.1145863 18.9114113,42.0395025 C18.9212045,42.0030202 18.9212045,41.9646007 18.9114113,41.9281185 C18.9308787,41.8850971 18.944267,41.8395769 18.9511913,41.7928665 C18.9511913,41.7928665 18.9511913,41.8803825 18.9511913,41.9281185 C18.9117535,42.036048 18.8746171,42.1448046 18.8398073,42.2543145 C18.8301237,42.2926243 18.8168033,42.3299216 18.8000273,42.3656984 C18.8000273,42.4134344 18.7602473,42.4532144 18.7443353,42.5009504 C18.7284233,42.5486864 18.7841153,42.4134344 18.8000273,42.3656984 C18.824158,42.3326583 18.8404795,42.2945747 18.8477633,42.2543145 L18.8398073,42.2543145 Z M18.4260953,43.1215184 L18.4260953,43.0499144 C18.4260953,43.0499144 18.4738313,42.9703544 18.4897433,42.9226184 L18.4897433,42.9226184 L18.4181393,43.0578704 C18.416622,43.0790593 18.416622,43.1003295 18.4181393,43.1215184 C18.3778541,43.197819 18.3298683,43.2697977 18.2749313,43.3363304 L18.4260953,43.1215184 Z M8.2105917,45.6515263 L8.34584369,45.7947343 L8.34584369,45.7947343 L8.46518369,45.8902063 L8.34584369,45.7947343 L8.34584369,45.7947343 C8.31165697,45.7735818 8.28409202,45.7432603 8.2662837,45.7072183 L8.2105917,45.6515263 L8.2105917,45.6515263 Z M11.5441556,46.2959623 L11.8783076,46.2243583 L11.7350996,46.2243583 L11.5521116,46.2641383 L11.4089036,46.2641383 L11.2259156,46.2641383 L11.0349716,46.2641383 L10.9792796,46.2641383 C11.1543116,46.2641383 11.3372996,46.2164023 11.5282436,46.1845783 L11.5441556,46.2959623 Z M10.2552836,46.4153023 L10.4064476,46.4153023 C10.5814796,46.4153023 10.7644676,46.4153023 10.9554116,46.4153023 L10.9554116,46.4153023 C10.7724236,46.4153023 10.5973916,46.4153023 10.4303156,46.4550823 L10.2632396,46.4550823 L10.2632396,46.4550823 L10.2552836,46.4153023 Z M9.57902365,46.3596103 C9.78456301,46.3907072 9.99179971,46.4093053 10.1995916,46.4153023 C9.9866529,46.4124703 9.77409064,46.3965281 9.56311165,46.3675663 C9.4351668,46.3425861 9.30993928,46.3052843 9.18917966,46.2561823 C9.28785638,46.2901196 9.38890802,46.3167121 9.49150765,46.3357423 L9.57902365,46.3596103 Z M9.12553167,46.2402703 L9.03801567,46.2402703 L8.84707168,46.1607103 L8.78342368,46.1607103 C8.8071102,46.1648727 8.83134115,46.1648727 8.85502768,46.1607103 C8.94469823,46.2010702 9.03791703,46.233031 9.13348766,46.2561823 L9.12553167,46.2402703 Z M12.1567676,46.1447983 L12.1567676,46.1447983 L12.4193155,46.0572823 L12.3715795,46.0572823 L12.3715795,46.0572823 L12.1567676,46.1447983 Z M9.22895966,47.8473822 L9.26873966,47.8473822 L9.49946365,47.8473822 L10.3905356,47.8473822 L10.6928636,47.8473822 L10.6928636,47.8473822 C10.3727342,47.8786686 10.050317,47.8786686 9.73018764,47.8473822 C9.64020083,47.8554661 9.54967046,47.8554661 9.45968365,47.8473822 C9.34829966,47.8473822 9.23691566,47.8473822 9.13348766,47.7996462 L9.22895966,47.8473822 Z M12.4113595,47.5052743 C12.5757667,47.4606368 12.737755,47.4075259 12.8966755,47.3461543 C13.0136453,47.3120677 13.1279826,47.2695236 13.2387835,47.2188583 C13.2621599,47.2257094 13.2870112,47.2257094 13.3103875,47.2188583 L13.3819915,47.2188583 L13.4297275,47.2188583 L13.1512675,47.3381983 L12.8250715,47.4495823 L12.6659515,47.4973183 L12.4511395,47.5689223 L12.3556675,47.5689223 L12.4113595,47.5052743 Z M14.4878755,45.0866503 C14.2491955,45.2378143 13.9946035,45.3730663 13.6922755,45.5083183 C13.9627795,45.3969343 14.2173715,45.2616823 14.4560515,45.1105183 L14.4878755,45.0866503 Z M16.8746754,42.8589704 L16.9781034,42.6680264 L16.8746754,42.8589704 C16.5972604,43.2705361 16.274329,43.6495135 15.9119994,43.9887224 C16.2654976,43.6543177 16.5828323,43.2836495 16.8587634,42.8828384 L16.8746754,42.8589704 Z M17.0894874,42.4770824 L17.0894874,42.4373024 C17.1437345,42.3370057 17.1915664,42.2333697 17.2326954,42.1270185 C17.1915664,42.2333697 17.1437345,42.3370057 17.0894874,42.4373024 L17.0894874,42.4373024 C17.073052,42.4769653 17.0516664,42.5143902 17.0258394,42.5486864 L17.0894874,42.4770824 Z M17.4475074,41.4268905 C17.4510762,41.3686011 17.4510762,41.3101479 17.4475074,41.2518585 L17.4475074,41.1722985 L17.4475074,41.1722985 L17.4475074,41.2439025 C17.4510762,41.3021919 17.4510762,41.3606451 17.4475074,41.4189345 C17.4506978,41.4506785 17.4506978,41.4826624 17.4475074,41.5144065 C17.4436693,41.4928507 17.4383527,41.4715845 17.4315954,41.4507585 L17.4475074,41.4268905 Z M17.4475074,41.0290905 L17.4475074,41.0290905 C17.4509239,41.008012 17.4509239,40.9865209 17.4475074,40.9654425 C17.4475074,40.9654425 17.4475074,40.9654425 17.4475074,40.9654425 L17.4475074,40.9654425 C17.4475074,40.9654425 17.4475074,40.9654425 17.4475074,40.9654425 C17.4572062,40.9938084 17.4572062,41.0245926 17.4475074,41.0529585 L17.4475074,41.0290905 Z M8.01964771,45.3491983 C8.01964771,45.3491983 8.01964771,45.3491983 8.01964771,45.3491983 C8.01964771,45.3491983 8.0753397,45.4367143 8.0992077,45.4764943 C8.1230757,45.5162743 8.0435157,45.3969343 8.01964771,45.3491983 L8.01964771,45.3491983 L8.01964771,45.3491983 Z M25.8172191,82.877649 L25.6183191,83.052681 L25.6183191,83.052681 L25.8172191,82.877649 Z M14.3207995,46.7335423 C14.0423395,46.8687943 13.7559235,47.0040463 13.4615515,47.1313423 C13.7559235,47.0120023 14.0423395,46.8767503 14.3207995,46.7335423 L14.3207995,46.7335423 L14.7504235,46.4869063 L14.3207995,46.7335423 Z M17.0497074,44.8320584 C16.7712474,45.0866503 16.4768754,45.3332863 16.1665914,45.5799223 C15.8563074,45.8265583 15.6574074,45.9299863 15.3709914,46.0970623 C15.6335394,45.9299863 15.8960874,45.7629103 16.1665914,45.5799223 C16.4370954,45.3969343 16.7792034,45.0866503 17.0576634,44.8320584 C17.1053994,44.7843224 17.1451794,44.7365864 17.1929154,44.6968064 L17.4156834,44.4660824 L17.4554634,44.4660824 L17.4554634,44.4660824 C17.3838594,44.5456424 17.2963434,44.6172464 17.2247394,44.6968064 L17.0497074,44.8320584 Z M45.1025623,115.290392 L45.1900783,115.377908 L45.1025623,115.290392 Z M62.4227737,146.469955 C62.51369,146.542585 62.6093769,146.609035 62.7091897,146.668855 C62.6127709,146.616442 62.5197651,146.557981 62.4307297,146.493823 L62.4227737,146.469955 Z M62.9717377,146.820019 C63.0910777,146.875711 63.2104177,146.915491 63.3377137,146.963227 C63.2183737,146.939359 63.0990337,146.899579 62.9796937,146.843887 L62.9717377,146.820019 Z M63.6559537,147.058699 L64.0855776,147.138259 C63.9387452,147.128358 63.7926289,147.109762 63.6479977,147.082567 L63.6559537,147.058699 Z M66.2893896,147.058699 C66.5121576,147.018919 66.7349256,146.955271 66.9656495,146.899579 C66.7428816,146.979139 66.5201136,147.042787 66.2973456,147.082567 L66.2893896,147.058699 Z M65.3267136,147.185995 L65.8995456,147.114391 L65.3267136,147.185995 Z M67.3157135,146.812063 C67.6657775,146.700679 68.0158415,146.573383 68.3818175,146.430175 C68.0237975,146.605207 67.6737335,146.724547 67.3236695,146.835931 L67.3157135,146.812063 Z M75.3512732,158.459646 L75.4626572,158.459646 L75.3512732,158.459646 Z M75.0807692,158.388042 L75.1682852,158.388042 L75.0807692,158.388042 Z M75.8206772,158.443734 L75.7013372,158.443734 L75.8206772,158.443734 Z M76.2662132,160.114494 L76.4253332,160.154274 L76.2662132,160.114494 Z M76.5287612,160.170186 L76.7356172,160.170186 L76.5287612,160.170186 Z M76.8390452,160.170186 C76.9613161,160.146811 77.0811656,160.112188 77.1970652,160.066758 C77.0834761,160.109015 76.966316,160.140968 76.8470012,160.16223 L76.8390452,160.170186 Z M78.2074771,158.921094 L77.3641412,157.05939 L77.3641412,156.406998 C77.3641412,156.287658 77.3641412,156.160362 77.3641412,156.041022 C77.3601774,155.988056 77.3601774,155.934868 77.3641412,155.881902 C77.2607132,153.63831 77.0299892,151.903902 76.9265612,151.108302 C76.8549572,150.61503 76.7674412,150.113802 76.6799252,149.604619 C76.5764972,148.968139 76.4571572,148.315747 76.3059932,147.655399 L76.3059932,147.655399 C75.7307535,145.077358 74.9567069,142.547741 73.9907973,140.089243 L69.6786454,132.300319 L58.3890819,111.861356 L57.2275059,109.792796 L56.8217499,109.060844 L56.8217499,109.060844 C56.8217499,109.060844 56.6944539,108.822164 56.4796419,108.416408 C56.4796419,108.360716 56.4159939,108.305024 56.3921259,108.241376 C56.1693579,107.851532 55.8908979,107.334392 55.54879,106.697912 C55.493098,106.594484 55.421494,106.475144 55.365802,106.36376 L51.8174261,99.8955323 C51.6105701,99.5375123 51.4037141,99.1556244 51.1968581,98.7737364 L49.7966022,96.2278165 L49.1919462,95.1298885 C47.5370983,92.1225206 45.6992623,88.7650887 43.7818664,85.3042289 L43.0817384,84.0471809 C42.7555424,83.4663929 42.4293464,82.869693 42.1111065,82.280949 C41.8565145,81.819501 41.6019225,81.358053 41.3155065,80.896605 C40.8540585,80.0453131 40.3766985,79.1940211 39.9072945,78.3347731 C39.6367905,77.8494571 39.3821986,77.3720972 39.1116946,76.8947372 C38.9923546,76.6640132 38.8730146,76.4332892 38.7377626,76.2105212 L36.5419067,72.2325214 L36.5419067,72.2325214 C36.5026634,72.1843014 36.4705143,72.1307195 36.4464347,72.0734014 C36.1520627,71.5323934 35.8576907,70.9993414 35.5553627,70.4822014 C35.4041987,70.2116974 35.2530347,69.9491494 35.1098267,69.6866014 L31.8637788,63.7832497 C31.5853188,63.2899777 31.3148149,62.7967057 31.0681789,62.3034337 C30.8692789,61.9533697 30.6703789,61.6033057 30.4794349,61.2532418 C27.7430474,66.0184963 25.324461,70.9593227 23.2394751,76.0434452 L26.549171,81.946797 L44.7524984,114.860768 L44.7524984,114.860768 L44.7524984,114.860768 L46.3436983,117.70106 L61.9613257,145.928947 C62.0214202,146.034973 62.0934968,146.133745 62.1761377,146.223319 C62.1761377,146.223319 62.1204457,146.183539 62.1045337,146.151715 C63.8668218,148.50921 65.81997,150.717811 67.9442375,152.755194 C70.1139325,154.815539 72.4622091,156.679251 74.9614293,158.324394 L76.0593572,159.979242 C76.0993372,160.019925 76.1448725,160.054746 76.1946092,160.08267 C76.1709377,160.087002 76.1466767,160.087002 76.1230052,160.08267 C76.2009419,160.144729 76.275316,160.211134 76.3457732,160.28157 L76.4571572,160.384998 L76.6878812,160.583898 L76.9106492,160.782798 L77.0220332,160.886226 C77.0936372,160.941918 77.1811532,161.029434 77.2448012,161.085126 L77.4755252,161.291982 L77.5869092,161.387454 L77.8096771,161.59431 L78.0324451,161.79321 L78.1438291,161.896638 L78.3745531,162.095538 C78.3745531,162.095538 78.4779811,162.095538 78.5575411,162.095538 C78.6371011,162.095538 78.7325731,161.968242 78.7250831,161.904594 L78.2074771,158.921094 Z M26.000207,80.984121 C25.5829145,80.269618 24.7599938,79.896433 23.9475591,80.0532691 C23.4861111,79.2576691 23.0326192,78.4222891 22.5791272,77.6028212 C22.0487272,78.9712531 21.5315872,80.3529451 21.0277072,81.747897 L21.6641872,82.877649 C22.2048556,83.9627261 22.8639083,84.984658 23.6293191,85.9247968 C23.9772654,86.3795944 24.5594926,86.5881998 25.1170911,86.4578488 L25.1170911,86.4578488 L25.1568711,86.4578488 L25.1568711,86.4578488 L25.2205191,86.4101128 L25.2682551,86.4101128 L25.2682551,86.4101128 L25.5228471,86.2669048 C25.66932,86.1669132 25.8006177,86.0463338 25.912691,85.9088848 C26.0738231,85.6469429 26.1463524,85.3400884 26.119547,85.0337249 C26.0682988,84.4327484 25.9036213,83.8469284 25.6342311,83.3072729 C25.6653381,83.274482 25.6945572,83.2399504 25.7217471,83.2038449 L26.008163,82.662837 C25.9675578,82.7245085 25.9223448,82.7830195 25.8729111,82.837869 C26.3091865,82.3114691 26.3604313,81.5652161 26.000207,80.984121 L26.000207,80.984121 Z" id="Shape" fill="#000000" fill-rule="nonzero" opacity="0.1" style="mix-blend-mode: multiply;"></path>
                        <polygon id="Path" fill="#000000" fill-rule="nonzero" opacity="0.1" style="mix-blend-mode: multiply;" points="72.3677733 156.494514 72.3677733 156.494514 72.3677733 156.486558"></polygon>
                        <path d="M9.54719965,40.2573585 C8.81433286,40.3867349 8.09885777,40.6003096 7.41499173,40.8938385 C6.50631536,41.2623353 5.65027641,41.7492074 4.86907182,42.3418304 L4.86907182,42.3418304 C4.31398422,42.7532157 3.8092798,43.2285458 3.36538788,43.7579984 C3.16503572,43.9708884 2.97898936,44.1968019 2.8084679,44.4342584 C2.63969254,44.6875912 2.4907375,44.9535824 2.36293191,45.2298583 L2.38679991,45.2298583 C2.19292452,45.5919651 2.05352029,45.9806885 1.97308793,46.3834783 C1.83855339,47.0199702 1.92851126,47.6834095 2.22767992,48.2610942 L2.22767992,48.2610942 C2.22379005,48.2821319 2.22379005,48.3037045 2.22767992,48.3247422 C2.25220061,48.3726711 2.28152289,48.4179874 2.31519592,48.4599942 L2.31519592,48.4599942 L2.38679991,48.4599942 L2.38679991,48.4599942 L2.38679991,48.4599942 L2.53000791,48.6191142 L2.53000791,48.6191142 L2.53000791,48.6191142 L2.53000791,48.6191142 C2.53000791,48.6191142 2.53000791,48.6191142 2.53000791,48.6191142 L2.53000791,48.6191142 L2.53000791,48.6191142 L2.53000791,48.6191142 L2.53000791,48.6191142 C2.53000791,48.6191142 2.53000791,48.6191142 2.53000791,48.6191142 C2.89117509,49.0184135 3.38689274,49.2705213 3.92230786,49.3271982 L4.02573585,49.3271982 L4.12120785,49.3271982 L4.23259184,49.3271982 L4.33601984,49.3271982 L4.49513984,49.3271982 L4.72586383,49.3271982 L5.04410381,49.3271982 C5.23486162,49.3391231 5.42617799,49.3391231 5.61693579,49.3271982 L5.91926378,49.3271982 L5.91926378,49.3271982 L6.07838378,49.3271982 C6.09884782,49.3351865 6.12156773,49.3351865 6.14203177,49.3271982 L6.14203177,49.3271982 C6.55276535,49.2795221 6.95781723,49.1915832 7.35134373,49.0646502 L7.58206772,48.9930462 C7.74647483,48.9484087 7.9084632,48.8952978 8.0673837,48.8339262 C8.18435349,48.7998397 8.29869077,48.7572956 8.40949169,48.7066302 C8.43286805,48.7134814 8.45771933,48.7134814 8.48109569,48.7066302 L8.55269969,48.7066302 L8.64021568,48.7066302 L8.64021568,48.7066302 C8.93458767,48.5872902 9.22100366,48.4520382 9.49946365,48.3088302 L9.49946365,48.3088302 C9.77792364,48.1656222 10.0563836,48.0065022 10.2950636,47.8473822 C10.5337436,47.6882623 10.9872356,47.3938903 11.3054756,47.1552103 C11.6237156,46.9165303 11.9180876,46.6619383 12.1965476,46.4073463 C12.2442836,46.3596103 12.2840635,46.3118743 12.3317995,46.2720943 L12.5545675,46.0413703 L12.7455115,45.8424703 C12.7455115,45.8424703 12.7455115,45.8424703 12.7455115,45.7947343 C12.7979413,45.7403937 12.845837,45.6818544 12.8887195,45.6197023 C13.0683955,45.4066688 13.2357446,45.1835367 13.3899475,44.9513984 C13.4511475,44.8702797 13.5069594,44.785233 13.5570235,44.6968064 L13.5570235,44.6252024 C13.5570235,44.6252024 13.6047595,44.5456424 13.6206715,44.4979064 L13.6206715,44.4979064 C13.6206715,44.4979064 13.6206715,44.4979064 13.6206715,44.4979064 L13.6684075,44.4342584 C13.663984,44.4186538 13.663984,44.4021269 13.6684075,44.3865224 C13.666958,44.3706434 13.666958,44.3546654 13.6684075,44.3387864 C13.7228207,44.2303841 13.7706436,44.1187973 13.8116155,44.0046344 C13.8329294,43.9708953 13.8465141,43.9328582 13.8513955,43.8932504 C13.8870282,43.8261201 13.9112275,43.7535222 13.9229995,43.6784384 C13.9327927,43.6419562 13.9327927,43.6035366 13.9229995,43.5670544 C13.9462013,43.5137082 13.9622522,43.4575299 13.9707355,43.3999784 C13.9746009,43.3576344 13.9746009,43.3150264 13.9707355,43.2726824 L13.9707355,43.2726824 L13.9707355,43.2726824 C13.9785551,43.2039521 13.9785551,43.1345567 13.9707355,43.0658264 C13.9948438,42.8836325 13.9948438,42.6990564 13.9707355,42.5168624 C13.9707355,42.5168624 13.9707355,42.4373024 13.9707355,42.4134344 L13.9707355,42.4134344 C13.9707355,42.4134344 13.9707355,42.3577424 13.9707355,42.3259184 C13.9707355,42.2940944 13.9150435,42.1747545 13.8911755,42.0951945 L13.8911755,42.0951945 C13.8911755,42.0951945 13.8911755,42.0951945 13.8911755,42.0951945 C13.8911755,42.0951945 13.8911755,42.0951945 13.8911755,42.0554145 L13.8911755,42.0554145 L13.8911755,42.0554145 L13.8911755,42.0554145 C13.8911755,42.0554145 13.8911755,42.0554145 13.8911755,42.0554145 L13.8911755,42.0554145 L13.8434395,41.9758545 C13.4328791,41.2884854 12.7560691,40.8017582 11.9737796,40.6312905 C11.7680214,40.5738166 11.5577601,40.5338936 11.3452556,40.5119505 L11.1940916,40.5119505 C10.6586577,40.3552768 10.1049489,40.2696794 9.54719965,40.2573585 Z M12.6579955,42.4293464 C12.6540833,42.4770023 12.6540833,42.5248986 12.6579955,42.5725544 C12.6579955,42.5725544 12.6579955,42.5725544 12.6579955,42.5725544 C12.6618589,42.5909174 12.6618589,42.6098834 12.6579955,42.6282464 C12.665891,42.6783251 12.665891,42.7293317 12.6579955,42.7794104 L12.6579955,42.8510144 C12.6615643,42.9093039 12.6615643,42.967757 12.6579955,43.0260464 C12.6646731,43.0762132 12.6646731,43.1270437 12.6579955,43.1772104 C12.6654021,43.2353194 12.6654021,43.2941335 12.6579955,43.3522424 C12.5990856,43.5902861 12.5108973,43.8201102 12.3954475,44.0364584 L12.3954475,44.0364584 C12.3775377,44.0795228 12.3534134,44.11973 12.3238435,44.1557984 C12.3238435,44.1557984 12.3238435,44.1557984 12.3238435,44.1557984 C12.3238435,44.1557984 12.2204156,44.3387864 12.1726796,44.4263024 C11.8757261,44.8679564 11.5286573,45.27376 11.1383996,45.6356143 C10.9157033,45.8442227 10.6819925,46.0407522 10.4382716,46.2243583 C9.79393884,46.7174269 9.08780651,47.1239879 8.33788769,47.4336703 L8.33788769,47.4336703 L7.95599971,47.5768783 L7.95599971,47.5768783 C7.9295955,47.580383 7.90284392,47.580383 7.87643971,47.5768783 L7.87643971,47.5768783 L7.79687971,47.5768783 L7.68549572,47.6166583 L7.55819972,47.7359982 L7.55819972,47.7359982 L7.38316773,47.7359982 L7.16039974,47.8155582 L6.96945574,47.8632942 L6.78646775,47.9030742 L6.64325976,47.9030742 L6.46027176,47.9030742 L6.26932777,47.9030742 L6.17385577,47.9030742 C5.99086778,47.9030742 5.81583579,47.9030742 5.64875979,47.9428542 C5.35863112,47.980255 5.06567869,47.9909078 4.77359982,47.9746782 C4.63508285,47.9469836 4.49929789,47.9070468 4.36784384,47.8553382 L4.36784384,47.8553382 C4.33370888,47.8484803 4.2985508,47.8484803 4.26441584,47.8553382 L4.08142785,47.7359982 L3.81092386,47.5848343 C3.73143272,47.5334798 3.6568594,47.4748864 3.58815587,47.4098023 L3.58815587,47.4098023 C3.55396914,47.3886497 3.5264042,47.3583283 3.50859587,47.3222863 L3.45290387,47.2665943 L3.45290387,47.2665943 C3.45290387,47.2665943 3.45290387,47.2665943 3.45290387,47.2665943 L3.45290387,47.2665943 L3.45290387,47.2665943 L3.45290387,47.2665943 L3.45290387,47.2665943 C3.36831167,47.1701293 3.30102201,47.0597743 3.25400388,46.9403983 L3.25400388,46.9403983 C3.18121488,46.7809143 3.13036458,46.6123054 3.10283989,46.4391703 C3.05506858,45.708633 3.27260282,44.9854023 3.71545186,44.4024344 L3.71545186,44.4024344 C4.11807002,43.8183137 4.60618472,43.2980156 5.16344381,42.8589704 C5.85820874,42.2982069 6.62984929,41.8400453 7.45477173,41.4984945 C8.24285823,41.1617372 9.08200232,40.9600198 9.93704364,40.9017945 C10.3991143,40.869252 10.8632004,40.9232155 11.3054756,41.0609145 C11.761043,41.1775961 12.1559081,41.4616716 12.4113595,41.8565145 C12.4334548,41.884852 12.4496827,41.9173077 12.4590955,41.9519865 L12.4590955,41.9519865 C12.4590955,41.9519865 12.4590955,41.9519865 12.4590955,41.9519865 C12.5532165,42.0971568 12.6180786,42.2593121 12.6500395,42.4293464 L12.6579955,42.4293464 Z" id="Shape" fill="#FFDD00" fill-rule="nonzero"></path>
                        <path d="M71.2857574,161.578398 L70.1400934,159.851946 C70.3310374,160.138362 70.8561334,160.178142 71.4448774,159.939462 C72.0336214,159.700782 72.6541893,159.064302 72.5905413,158.634678 L73.4418333,160.504338 C73.4895693,160.886226 73.0440333,161.39541 72.4314213,161.650002 C71.8188094,161.904594 71.4528334,161.825034 71.2857574,161.578398 Z" id="Path" fill="#0A0005" fill-rule="nonzero"></path>
                        <path d="M73.6009533,163.66287 L73.3781853,163.46397 L73.2588453,163.360542 L73.0360773,163.161642 L72.8133093,162.954786 L72.7019253,162.859314 L72.4791573,162.652458 L72.2484333,162.453558 L72.1370494,162.35013 L71.9142814,162.15123 C71.8426774,162.095538 71.7551614,162.008022 71.6915134,161.95233 L71.5721734,161.848902 L71.3494054,161.650002 C71.6854504,161.838494 72.0953764,161.838494 72.4314213,161.650002 C73.0440333,161.39541 73.4895693,160.854402 73.4418333,160.504338 L73.9510173,163.471926 C73.9510173,163.535574 73.8873693,163.62309 73.7839413,163.66287 C73.6805133,163.70265 73.6327773,163.694694 73.6009533,163.66287 Z" id="Path" fill="#0A0005" fill-rule="nonzero"></path>
                        <path d="M70.2673894,159.979242 C67.738123,158.317622 65.36302,156.43245 63.1706377,154.346394 C61.027243,152.31346 59.05788,150.10458 57.2831979,147.742915 C58.2458739,149.023831 60.7758818,149.206819 63.5843497,148.045243 C66.9815615,146.637031 69.4956575,143.788783 69.2012855,141.680443 C70.1537044,144.145491 70.9144357,146.680375 71.4767014,149.262511 C71.7312934,150.45591 71.9301934,151.60953 72.0893134,152.715414 C72.3665814,154.698526 72.5259813,156.696338 72.5666733,158.698326 C72.5666733,159.119994 72.0734014,159.661002 71.4130534,159.939462 C71.0556656,160.12082 70.6364957,160.135375 70.2673894,159.979242 L70.2673894,159.979242 Z" id="Path" fill="#F1F2F2" fill-rule="nonzero"></path>
                        <path d="M57.1638579,147.512191 L41.5462305,119.284304 C42.3418304,120.772076 45.0309583,121.050536 47.9985462,119.817356 C51.3957581,118.409144 53.909854,115.560896 53.615482,113.452556 L69.2171975,141.680443 C69.5115695,143.788783 66.9974735,146.637031 63.6002617,148.045243 C60.6485858,149.270467 57.9912819,148.999963 57.1638579,147.512191 Z" id="Path" fill="#2D4E9D" fill-rule="nonzero"></path>
                        <path d="M41.5462305,119.284304 L39.9550305,116.444012 C40.7506305,117.93974 43.4397584,118.210244 46.4073463,116.977064 C49.8125142,115.568852 52.3266101,112.720604 52.0242821,110.612264 L53.615482,113.452556 C53.909854,115.55294 51.3957581,118.401188 47.9985462,119.817356 C45.0309583,121.050536 42.3736544,120.772076 41.5462305,119.284304 Z" id="Path" fill="#FFDD00" fill-rule="nonzero"></path>
                        <path d="M14.1537235,41.8724265 L14.1537235,41.8724265 L14.2014595,41.9678985 C14.2299008,42.0047493 14.2539322,42.0448016 14.2730635,42.0872385 L14.2730635,42.0872385 L14.3207995,42.1667985 C14.3626244,42.2331162 14.3998401,42.3022312 14.4321835,42.3736544 C14.6708635,42.7953224 14.9970594,43.3840664 15.4028154,44.1239744 L15.5858034,44.4422144 L16.5246114,46.1447983 L17.2804314,47.4893623 L18.1794593,49.1282982 C18.3465353,49.4385822 18.5215673,49.7488662 18.6965993,50.0591502 C19.0068833,50.6319821 19.3410353,51.2286821 19.6831433,51.8492501 L21.0038392,54.23605 L21.7198792,55.540834 L22.4200072,56.8058379 L22.8416752,57.6014379 C23.0644432,57.9833259 23.2712991,58.3970379 23.4861111,58.7550578 L24.8147631,61.1418578 L25.2284751,61.8817657 C25.5785391,62.5102897 25.928603,63.1547257 26.294579,63.7991617 C26.565083,64.3003896 26.835587,64.7936616 27.090179,65.2869336 C28.148327,67.2043295 29.2382989,69.1933295 30.3441829,71.1902854 L30.7817629,71.9858854 C31.0840909,72.5189373 31.3784628,73.0599453 31.6728348,73.5770853 C31.6985898,73.6360326 31.7305971,73.6920453 31.7683068,73.7441613 L31.7683068,73.7441613 C32.4896508,75.0754652 33.2189508,76.4014652 33.9562068,77.7221611 C34.0914587,77.9528851 34.2107987,78.1756531 34.3301387,78.4063771 C34.6085987,78.8837371 34.8631907,79.3610971 35.1257387,79.8464131 C35.6030987,80.705661 36.0725027,81.556953 36.5339507,82.408245 C36.7964987,82.869693 37.0510906,83.3390969 37.3295506,83.7925889 C37.6557466,84.3813329 37.9739866,84.9780329 38.3001826,85.5588209 L39.0003106,86.8158688 C40.9177065,90.3085527 42.7555424,93.6421166 44.4103904,96.6415285 C44.6092904,97.0154604 44.8161464,97.3814364 45.0150463,97.7394564 L46.4153023,100.285376 C46.6221583,100.667264 46.8290143,101.080976 47.0358703,101.415128 L50.5842461,107.8754 L50.7672341,108.209552 C51.1093421,108.846032 51.3957581,109.363172 51.6105701,109.753016 C51.6105701,109.816664 51.6742181,109.872356 51.6980861,109.928048 C51.9208541,110.34176 52.0401941,110.556572 52.0401941,110.572484 L52.0401941,110.572484 C52.1044022,111.267373 51.9515197,111.965073 51.6026141,112.56944 C51.5308458,112.714266 51.4511655,112.855035 51.3639341,112.991108 C51.2843741,113.12636 51.1889021,113.261612 51.0934301,113.40482 L51.0934301,113.40482 C50.9967932,113.547219 50.8904615,113.682792 50.7751901,113.810576 C50.6643825,113.953124 50.5448115,114.088637 50.4171702,114.216332 C50.2978302,114.343628 50.1784902,114.470924 50.0591502,114.582308 C49.9398102,114.693692 50.0591502,114.582308 50.0591502,114.582308 L49.6852182,114.91646 L49.2874182,115.242656 C49.1521662,115.35404 49.0089582,115.457468 48.8657502,115.560896 L48.4202142,115.855268 L48.0224142,116.10986 L47.6087023,116.340584 C47.4553432,116.431179 47.2958338,116.510934 47.1313423,116.579264 C46.9165799,116.691345 46.6961701,116.792256 46.4709943,116.881592 L46.4709943,116.881592 C46.3198303,116.94524 46.1607103,117.008888 46.0095463,117.056624 C45.9592103,117.082161 45.9057011,117.100889 45.8504263,117.112316 C45.240543,117.335913 44.6083858,117.493285 43.9648544,117.58172 C43.8136904,117.58172 43.6625264,117.6215 43.5113624,117.629456 L43.3681544,117.629456 C43.0820878,117.649463 42.794973,117.649463 42.5089064,117.629456 L42.2463585,117.629456 C42.1100323,117.619802 41.9744881,117.601198 41.8406025,117.573764 L41.5860105,117.50216 L41.4189345,117.446468 L41.1802545,117.358952 L41.0052225,117.271436 C40.9187713,117.234554 40.8361609,117.189252 40.7585865,117.136184 C40.6553113,117.068992 40.5569397,116.994549 40.4642145,116.913416 C40.3747349,116.838428 40.2945994,116.75295 40.2255345,116.658824 C40.1626607,116.58454 40.1067344,116.504646 40.0584585,116.420144 L40.0584585,116.420144 L40.0584585,116.420144 L40.0584585,116.420144 L21.7755712,83.5379969 L8.36175569,59.2960658 L8.00373571,58.6516298 L5.99086778,55.015738 L5.5294198,54.220138 L5.5691998,54.220138 L4.10529585,51.6185261 L3.62793587,50.7513221 L3.18239988,49.8761622 L2.29132792,48.2849622 C2.28768347,48.3033474 2.28768347,48.3222691 2.29132792,48.3406542 C2.31487069,48.389141 2.34426134,48.4345629 2.37884391,48.4759062 L2.37884391,48.4759062 C2.42785761,48.5377875 2.48102009,48.5962662 2.53796391,48.6509382 L2.6095679,48.7145862 L2.6095679,48.7145862 L2.6095679,48.7145862 L2.6095679,48.7145862 C2.71904423,48.80049 2.83326018,48.8801755 2.95167589,48.9532662 L3.12670789,49.0566942 L3.27787188,49.1203422 L3.38129988,49.1680782 L3.38129988,49.1680782 L3.49268387,49.1680782 L3.49268387,49.1680782 C3.49268387,49.1680782 3.49268387,49.1680782 3.49268387,49.1680782 L3.49268387,49.1680782 L3.49268387,49.1680782 L3.54837587,49.1680782 L3.75523186,49.2158142 C3.8870436,49.257579 4.02316437,49.2842693 4.16098785,49.2953742 C4.27237184,49.2953742 4.39966784,49.2953742 4.51900783,49.3431102 C4.60899464,49.3511941 4.69952501,49.3511941 4.78951182,49.3431102 C5.10964122,49.3743965 5.43205839,49.3743965 5.75218779,49.3431102 L5.96699978,49.3431102 L5.96699978,49.3431102 C6.375832,49.2844504 6.77996087,49.1967119 7.17631174,49.0805622 L7.44681573,49.0010022 L7.66162772,48.9293982 L7.82074771,48.8816622 L8.1469437,48.7702782 L8.47313969,48.6350262 L8.47313969,48.6350262 C8.77546768,48.5156862 9.06188367,48.3804342 9.34034366,48.2372262 L9.34034366,48.2372262 C9.61880365,48.0940182 9.89726364,47.9348982 10.1359436,47.7757782 C10.3746236,47.6166583 10.8281156,47.3222863 11.1543116,47.0836063 C11.4805076,46.8449263 11.7589676,46.5903343 12.0374276,46.3357423 L12.1726796,46.2004903 C12.2442836,46.1209303 12.3317995,46.0493263 12.4034035,45.9697663 C12.4602114,45.8997319 12.5213257,45.8333034 12.5863915,45.7708663 L12.5863915,45.7231303 L12.7295995,45.5480983 C12.9117649,45.3370571 13.0792342,45.1137646 13.2308275,44.8797944 C13.2920275,44.7986757 13.3478394,44.713629 13.3979035,44.6252024 C13.3963861,44.6040135 13.3963861,44.5827432 13.3979035,44.5615544 L13.5092875,44.3626544 L13.5092875,44.2990064 C13.5246042,44.2680789 13.5378923,44.2361875 13.5490675,44.2035344 C13.6047595,44.0921504 13.6524955,43.9807664 13.7002315,43.8693824 C13.7170074,43.8336056 13.7303279,43.7963082 13.7400115,43.7579984 C13.7748213,43.6484886 13.8119577,43.5397319 13.8513955,43.4318024 C13.8692767,43.3746058 13.8825787,43.3160771 13.8911755,43.2567704 C13.8955764,43.2171121 13.8955764,43.1770887 13.8911755,43.1374304 L13.8911755,43.1374304 L13.8911755,43.1374304 C13.8944495,43.1190108 13.8944495,43.1001581 13.8911755,43.0817384 C13.8943904,43.0659888 13.8943904,43.049752 13.8911755,43.0340024 C13.8942256,42.9863151 13.8942256,42.9384817 13.8911755,42.8907944 C13.9151003,42.7085884 13.9151003,42.5240364 13.8911755,42.3418304 C13.9002961,42.3079577 13.9002961,42.2722752 13.8911755,42.2384025 C13.8950082,42.2066939 13.8950082,42.1746391 13.8911755,42.1429305 C13.8799708,42.0808025 13.8640119,42.0196267 13.8434395,41.9599425 L14.1537235,41.8724265 Z" id="Path" fill="#2D4E9D" fill-rule="nonzero"></path>
                        <g id="Group"></g>
                        <path d="M14.0343835,41.6417025 C14.1400129,41.8351673 14.2126142,42.0449043 14.2491955,42.2622704 L14.3207995,42.1667985 C14.1457675,41.8326465 14.0343835,41.6417025 14.0343835,41.6417025 Z" id="Path" fill="#00A651" fill-rule="nonzero"></path>
                        <path d="M14.1378115,41.8406025 C14.1378115,41.8406025 14.1378115,41.8406025 14.1378115,41.8406025 C14.1378115,41.8962945 14.2173715,41.9838105 14.2651075,42.0713265 L14.2651075,42.0713265 C14.3207995,42.1667985 14.3764915,42.2622704 14.4321835,42.3816104 C14.6708635,42.8032784 14.9970594,43.3920224 15.4028154,44.1319304 L15.5858034,44.4501704 L16.5246114,46.1447983 C16.7632914,46.5664663 17.0099274,47.0199583 17.2804314,47.4893623 L18.1794593,49.1282982 C18.3465353,49.4385822 18.5215673,49.7488662 18.6965993,50.0591502 C19.0068833,50.6319821 19.3410353,51.2286821 19.6831433,51.8492501 C20.1048113,52.6448501 20.5423912,53.44045 21.0038392,54.23605 L21.7198792,55.540834 L22.4200072,56.8058379 L22.8416752,57.6014379 L23.4861111,58.7550578 L24.8147631,61.1418578 L25.2284751,61.8817657 C25.5785391,62.5102897 25.928603,63.1547257 26.294579,63.7991617 C26.557127,64.3003896 26.827631,64.7936616 27.090179,65.2869336 C28.148327,67.2043295 29.2382989,69.1933295 30.3441829,71.1902854 L30.7817629,71.9858854 C31.0840909,72.5189373 31.3784628,73.0599453 31.6728348,73.5770853 C31.6985898,73.6360326 31.7305971,73.6920453 31.7683068,73.7441613 C32.4896508,75.0754652 33.2189508,76.4014652 33.9562068,77.7221611 C34.0914587,77.9528851 34.2107987,78.1756531 34.3301387,78.4063771 L35.1257387,79.8464131 C35.6030987,80.705661 36.0725027,81.556953 36.5339507,82.408245 C36.7964987,82.869693 37.0431346,83.3390969 37.3295506,83.7925889 C37.6557466,84.3813329 37.9739866,84.9780329 38.3001826,85.5588209 C38.5309066,85.9804888 38.7616306,86.4021568 39.0003106,86.8158688 C40.9177065,90.3085527 42.7555424,93.6421166 44.4103904,96.6415285 C44.6092904,97.0154604 44.8081904,97.3814364 45.0150463,97.7394564 L46.4153023,100.285376 C46.6221583,100.667264 46.8290143,101.080976 47.0358703,101.415128 L50.5842461,107.8754 L50.7672341,108.209552 C51.1093421,108.846032 51.3957581,109.363172 51.6105701,109.753016 C51.6105701,109.816664 51.6742181,109.872356 51.6980861,109.928048 C51.9208541,110.34176 52.0401941,110.556572 52.0401941,110.572484 L52.0401941,110.572484 L53.631394,113.396864 L69.2171975,141.680443 C70.1670511,144.149086 70.9277181,146.686416 71.4926134,149.270467 C71.7472054,150.447954 71.9461054,151.60953 72.0972694,152.715414 C72.3743808,154.680012 72.5364291,156.659126 72.5825853,158.642634 L72.5825853,158.698326 C72.4234653,158.475558 70.9913854,154.386174 69.8298094,151.315158 C69.1855865,149.56531 68.4117065,147.865966 67.5146135,146.231275 L67.2202415,145.706179 L52.2390941,118.608044 L51.6264821,117.486248 L50.0352822,114.638 L32.6195988,83.052681 L29.2701229,76.9583852 L12.3954475,46.2880063 C12.4670515,46.2084463 12.5545675,46.1368423 12.6261715,46.0572823 C12.6829794,45.9872479 12.7440937,45.9208194 12.8091595,45.8583823 L12.8091595,45.8106463 L12.9523675,45.6356143 C13.1345329,45.4245731 13.3020022,45.2012806 13.4535955,44.9673104 C13.5147955,44.8861917 13.5706074,44.801145 13.6206715,44.7127184 C13.6191541,44.6915295 13.6191541,44.6702592 13.6206715,44.6490704 L13.6922755,44.5138184 L13.8036595,44.2910504 C13.8593515,44.1796664 13.9070875,44.0682824 13.9548235,43.9568984 C13.9715994,43.9211216 13.9849199,43.8838242 13.9946035,43.8455144 C14.0294133,43.7360046 14.0665497,43.6272479 14.1059875,43.5193184 C14.1238687,43.4621218 14.1371707,43.4035931 14.1457675,43.3442864 L14.1457675,43.2249464 L14.1457675,43.2249464 C14.1490414,43.2065268 14.1490414,43.1876741 14.1457675,43.1692544 C14.1489824,43.1535048 14.1489824,43.137268 14.1457675,43.1215184 C14.1488176,43.0738311 14.1488176,43.0259977 14.1457675,42.9783104 C14.1696923,42.7961044 14.1696923,42.6115524 14.1457675,42.4293464 C14.1548881,42.3954737 14.1548881,42.3597912 14.1457675,42.3259184 C14.1496002,42.2942098 14.1496002,42.2621551 14.1457675,42.2304465 C14.1345628,42.1683185 14.1186039,42.1071427 14.0980315,42.0474585 C14.0980315,42.0474585 14.0980315,41.9917665 14.0980315,41.9678985 C14.0980315,41.9440305 14.0980315,41.9678985 14.0980315,41.9678985 L14.1378115,41.8406025 Z" id="Path" fill="#0A0005" fill-rule="nonzero" opacity="0.05" style="mix-blend-mode: multiply;"></path>
                        <path d="M4.24054784,34.0039428 L4.29623984,34.0039428 C4.52654267,33.9842274 4.75810899,33.9842274 4.98841182,34.0039428 L5.12366381,34.0039428 C5.36236505,34.0336875 5.59888841,34.0788661 5.83174779,34.1391947 L6.11816378,34.2187547 C6.34888777,34.3062707 6.60347976,34.4017427 6.86602775,34.5290387 C6.98536774,34.5926867 7.10470774,34.6563347 7.21609174,34.7279387 C7.31509226,34.7832273 7.41073167,34.8443303 7.50250772,34.9109267 C7.55484024,34.9352487 7.60313673,34.9674464 7.64571572,35.0063987 C7.64571572,35.0063987 7.64571572,35.0063987 7.64571572,35.0063987 L7.71731972,35.0541347 C7.74478451,35.0709215 7.76903272,35.0924754 7.78892371,35.1177827 L7.83665971,35.1655187 L7.83665971,35.1655187 L8.02760371,35.3246387 L8.1628557,35.4280667 L8.2424157,35.5155827 L8.2901517,35.5553627 L8.61634768,35.8895147 L8.73568768,36.0247667 L8.77546768,36.0725027 L8.77546768,36.0725027 L8.84707168,36.1600187 C8.90276367,36.2236667 8.95049967,36.3032267 8.98232367,36.3430067 C9.01414767,36.3827867 9.12553167,36.5339507 9.18917966,36.6373787 C9.21758426,36.6713863 9.24163779,36.7088029 9.26078366,36.7487627 L9.26078366,36.7487627 L9.26078366,36.7487627 L9.26078366,36.7487627 L9.35625566,36.9237946 L9.41194765,37.0113106 C9.45968365,37.0829146 9.49946365,37.1704306 9.55515565,37.2420346 C9.59933853,37.3346212 9.65264214,37.4225722 9.71427564,37.5045826 C9.71427564,37.5045826 9.71427564,37.5443626 9.71427564,37.5682306 L10.3268876,38.5627306 C10.6371716,39.0321346 10.9235876,39.5094946 11.2179596,39.9868545 L11.5361996,40.5039945 L11.7987476,40.9177065 C11.8143178,40.951185 11.8329618,40.9831461 11.8544396,41.0131785 C11.962806,41.1629848 12.0611447,41.3197951 12.1488116,41.4825825 C12.1702893,41.5126149 12.1889333,41.544576 12.2045036,41.5780545 L12.2045036,41.5780545 C12.1972234,41.5986459 12.1972234,41.621111 12.2045036,41.6417025 C12.2263337,41.679875 12.2449615,41.7197917 12.2601956,41.7610425 C12.3317486,41.9015116 12.382661,42.0515694 12.4113595,42.2065785 C12.4152494,42.2276162 12.4152494,42.2491887 12.4113595,42.2702264 C12.4149384,42.2992887 12.4149384,42.3286802 12.4113595,42.3577424 C12.4113595,42.3577424 12.4113595,42.3577424 12.4113595,42.3577424 C12.423229,42.4288546 12.423229,42.5014423 12.4113595,42.5725544 L12.4113595,42.6362024 C12.4149283,42.6944919 12.4149283,42.752945 12.4113595,42.8112344 C12.4180372,42.8614012 12.4180372,42.9122317 12.4113595,42.9623984 C12.4187661,43.0205074 12.4187661,43.0793215 12.4113595,43.1374304 C12.3524496,43.3754741 12.2642613,43.6052982 12.1488116,43.8216464 L12.1488116,43.8614264 L12.1010756,43.9489424 C12.1010756,43.9489424 12.1010756,43.9489424 12.1010756,43.9489424 C12.1010756,43.9489424 11.9976476,44.1319304 11.9499116,44.2194464 C11.7337756,44.7206435 11.4615344,45.1957311 11.1383996,45.6356143 C10.9194466,45.8484007 10.6854664,46.0451568 10.4382716,46.2243583 C9.79169722,46.7140538 9.08601485,47.1203558 8.33788769,47.4336703 L8.33788769,47.4336703 L7.95599971,47.5768783 C7.69345172,47.6723503 7.44681573,47.7519102 7.20017974,47.8155582 L6.81829175,47.9030742 C6.44611075,47.9781812 6.06810225,48.0207737 5.68853979,48.0303702 C5.42187666,48.0358799 5.15533543,48.0145566 4.89293982,47.9667222 L4.80542382,47.9667222 L4.47127184,47.8792062 L4.47127184,47.8792062 C4.33979447,47.8434652 4.21194311,47.7955209 4.08938385,47.7359982 C3.99319838,47.6920732 3.90015753,47.6415653 3.81092386,47.5848343 L3.58815587,47.4098023 L3.58815587,47.4098023 L3.45290387,47.2665943 L3.45290387,47.2665943 L3.45290387,47.2665943 L3.45290387,47.2665943 L3.45290387,47.2665943 C3.36831167,47.1701293 3.30102201,47.0597743 3.25400388,46.9403983 C3.25400388,46.9403983 3.25400388,46.9403983 3.25400388,46.9403983 C2.96758789,46.3436983 2.6732159,45.7549543 2.37088791,45.1502983 L2.38679991,45.1502983 L1.39229995,43.1851664 L1.39229995,43.1851664 C1.15361996,42.6998504 0.914939966,42.2145345 0.668303975,41.7292185 C0.668303975,41.7292185 0.668303975,41.7292185 0.668303975,41.6814825 C0.668303975,41.6337465 0.612611978,41.5541865 0.588743978,41.4984945 L0.517139981,41.3155065 C0.461447983,41.1722985 0.405755985,41.0290905 0.358019987,40.8858825 L0.358019987,40.8858825 C0.353519009,40.8515534 0.353519009,40.8167836 0.358019987,40.7824545 L0.358019987,40.7824545 C0.354297753,40.7667602 0.354297753,40.7504128 0.358019987,40.7347185 L0.358019987,40.7347185 C0.331419074,40.6621078 0.310146702,40.5876545 0.294371989,40.5119505 L0.214811992,40.2016665 C0.210294847,40.180691 0.210294847,40.1589941 0.214811992,40.1380185 C0.210306432,40.0824177 0.210306432,40.0265434 0.214811992,39.9709425 C0.217799699,39.9312186 0.217799699,39.8913264 0.214811992,39.8516025 C0.214811992,39.7561305 0.214811992,39.6686145 0.214811992,39.5651865 C0.210598091,39.5255181 0.210598091,39.485515 0.214811992,39.4458466 C0.214811992,39.3583306 0.214811992,39.2708146 0.214811992,39.1673866 C0.204828249,38.8245644 0.220785753,38.481478 0.26254799,38.1410626 C0.266452414,37.6170807 0.349605278,37.0967047 0.509183981,36.5975987 C0.509183981,36.5975987 0.509183981,36.5975987 0.509183981,36.5975987 C0.510633528,36.5817197 0.510633528,36.5657416 0.509183981,36.5498627 L0.509183981,36.5498627 C0.509183981,36.4862147 0.580787979,36.4066547 0.612611978,36.3270947 C0.644435976,36.2475347 0.716039974,36.1520627 0.779687971,36.0565907 L0.779687971,36.0565907 L0.779687971,36.0565907 C0.778174437,36.0380575 0.778174437,36.0194318 0.779687971,36.0008987 L0.779687971,36.0008987 C0.827877928,35.911342 0.883781442,35.8261557 0.946763965,35.7463067 L1.03427996,35.6587907 L1.12179596,35.5712747 C1.26543152,35.4049277 1.42242208,35.250598 1.59119994,35.1098267 C1.86160393,34.8597928 2.16717574,34.6507173 2.49818391,34.4892587 L2.6652599,34.4176547 C2.72474713,34.373243 2.79229984,34.3408177 2.86415989,34.3221827 C3.22690289,34.1672748 3.61007732,34.0654522 4.00186785,34.0198548 L4.17689985,34.0198548 L4.24054784,34.0039428 Z" id="Path" fill="#D2D3D5" fill-rule="nonzero"></path>
                        <path d="M4.29623984,34.0039428 C4.52654267,33.9842274 4.75810899,33.9842274 4.98841182,34.0039428 L5.12366381,34.0039428 C5.36236505,34.0336875 5.59888841,34.0788661 5.83174779,34.1391947 L6.11816378,34.2187547 C6.37632262,34.2993524 6.62663663,34.4032061 6.86602775,34.5290387 C6.98536774,34.5926867 7.10470774,34.6563347 7.21609174,34.7279387 C7.31509226,34.7832273 7.41073167,34.8443303 7.50250772,34.9109267 C7.55484024,34.9352487 7.60313673,34.9674464 7.64571572,35.0063987 C7.64571572,35.0063987 7.64571572,35.0063987 7.64571572,35.0063987 L7.82870371,35.1655187 L7.82870371,35.1655187 L7.82870371,35.1655187 L8.01964771,35.3246387 L8.1469437,35.4360227 C8.17946376,35.4586085 8.20888593,35.485356 8.2344597,35.5155827 L8.2821957,35.5553627 L8.60839168,35.8895147 C8.71076154,36.0095651 8.80385013,36.1372295 8.88685167,36.2714027 C8.84707168,36.2077547 8.82320368,36.1520627 8.79933568,36.1122827 L8.79933568,36.1122827 C8.83770609,36.1444218 8.86773206,36.1853663 8.88685167,36.2316227 C8.94254367,36.2952707 8.99027967,36.3748307 9.02210367,36.4146107 C9.05392767,36.4543907 9.16531166,36.6055547 9.22895966,36.7089827 C9.28595538,36.7854575 9.33400449,36.8682088 9.37216766,36.9556186 C9.36871787,36.9398936 9.36871787,36.9236077 9.37216766,36.9078826 C9.37216766,36.9078826 9.37216766,36.9078826 9.37216766,36.9078826 L9.37216766,36.9078826 C9.37216766,36.9078826 9.37216766,36.9078826 9.41194765,36.9556186 L9.50741965,37.1306506 L9.56311165,37.2181666 C9.55559654,37.2359701 9.55559654,37.2560552 9.56311165,37.2738586 C9.59825424,37.3352331 9.6381566,37.3937565 9.68245164,37.4488906 C9.72663453,37.5414772 9.77993813,37.6294282 9.84157164,37.7114386 C9.84157164,37.7114386 9.84157164,37.7512186 9.84157164,37.7750866 L10.4541836,38.7695866 C10.7565116,39.2469466 11.0429276,39.7163505 11.3293436,40.1937105 C11.4407276,40.3687425 11.5521116,40.5437745 11.6555396,40.7188065 L11.6555396,40.7585865 C11.7276249,40.8852933 11.8073313,41.0075098 11.8942196,41.1245625 C11.9097898,41.158041 11.9284338,41.1900021 11.9499116,41.2200345 C12.058278,41.3698408 12.1566167,41.5266511 12.2442836,41.6894385 C12.2657613,41.7194709 12.2844053,41.751432 12.2999755,41.7849105 L12.2999755,41.7849105 L12.2999755,41.7849105 C12.3214533,41.8149429 12.3400973,41.846904 12.3556675,41.8803825 C12.435206,42.0400938 12.4965855,42.2082201 12.5386555,42.3816104 C12.5343351,42.4319058 12.5343351,42.4824791 12.5386555,42.5327744 C12.5386555,42.5327744 12.5386555,42.5327744 12.5386555,42.5327744 C12.5419105,42.5671736 12.5419105,42.6018033 12.5386555,42.6362024 L12.5386555,42.8112344 C12.5422243,42.8695239 12.5422243,42.927977 12.5386555,42.9862664 C12.5453331,43.0364332 12.5453331,43.0872637 12.5386555,43.1374304 C12.5460621,43.1955394 12.5460621,43.2543535 12.5386555,43.3124624 C12.4797456,43.5505061 12.3915573,43.7803302 12.2761075,43.9966784 L12.2761075,44.0364584 L12.2283716,44.1239744 C12.2283716,44.1239744 12.2283716,44.1239744 12.2283716,44.1239744 C12.2283716,44.1239744 12.1249436,44.3069624 12.0772076,44.3944784 C11.6394575,43.4514221 11.1062759,42.555677 10.4860076,41.7212625 C10.3109756,41.4666705 10.1359436,41.2041225 9.96886763,40.9256625 C9.94972177,40.8857028 9.92566823,40.8482862 9.89726364,40.8142785 L9.54719965,40.2573585 C9.30056366,39.8675145 9.05392767,39.4617586 8.81524768,39.0957826 C8.2981077,38.3001826 7.77301171,37.5045826 7.22404774,36.6612467 L7.22404774,36.6612467 C7.12061974,36.5100827 7.03310374,36.3589187 6.92967575,36.2157107 L6.99332374,36.3430067 C6.74822534,36.0236203 6.48245565,35.7206429 6.19772377,35.4360227 L6.19772377,35.4360227 L6.19772377,35.4360227 L6.19772377,35.4360227 L6.19772377,35.4360227 C6.14028972,35.3740651 6.07918354,35.3156158 6.01473578,35.2609907 C6.01473578,35.2609907 5.62489179,34.9188827 5.5294198,34.8393227 L5.5294198,34.8393227 L5.5294198,34.8393227 C5.17139981,34.5131267 4.59061183,34.0118988 4.29623984,34.0039428 Z" id="Path" fill="#000000" fill-rule="nonzero" opacity="0.16" style="mix-blend-mode: multiply;"></path>
                        <g id="Group"></g>
                        <path d="M2.13220792,41.1802545 C2.10838778,41.1578313 2.08943145,41.1307509 2.07651592,41.1006945 L2.12425192,41.1643425 L2.13220792,41.1802545 Z" id="Path" fill="#000000" fill-rule="nonzero" opacity="0.16" style="mix-blend-mode: multiply;"></path>
                        <g id="Group" opacity="0.16" style="mix-blend-mode: multiply;"></g>
                        <path d="M1.24113595,35.4758027 C1.11082214,36.2000447 1.07339227,36.9379477 1.12975196,37.6716586 L1.12975196,37.8466906 L1.17748796,38.2604026 C1.17748796,38.3956546 1.21726796,38.4990826 1.23317995,38.5786426 C1.24909195,38.6582026 1.23317995,38.7298066 1.27295995,38.7775426 L1.27295995,38.7775426 L1.27295995,38.7775426 C1.28060685,38.8344233 1.2939334,38.8903949 1.31273995,38.9446186 C1.39229995,39.3344626 1.47981595,39.5970105 1.50368394,39.6924825 L1.50368394,39.7959105 C1.50368394,39.7959105 1.50368394,39.7959105 1.50368394,39.7959105 L1.50368394,39.7959105 C1.58324394,40.0107225 1.66280394,40.2255345 1.73440794,40.4323905 C1.80601193,40.6392465 1.88557193,40.7824545 1.96513193,40.9574865 L1.96513193,40.9574865 L1.96513193,40.9574865 L1.96513193,40.9574865 L2.41066791,41.8644705 C2.6891279,42.4293464 2.97554389,43.0021784 3.25400388,43.5750104 C3.36538788,43.8057344 3.47677187,44.0444144 3.59611187,44.2751384 C4.10529585,45.3014623 4.60652383,46.3277863 5.11570781,47.3461543 C5.19526781,47.5211863 5.28278381,47.7041743 5.3702998,47.8792062 C5.14646396,47.8771326 4.9230875,47.8585179 4.70199583,47.8235142 L4.70199583,47.8235142 L4.61447983,47.8235142 L4.28032784,47.7359982 C4.21671655,47.7390551 4.15299514,47.7390551 4.08938385,47.7359982 C3.99319838,47.6920732 3.90015753,47.6415653 3.81092386,47.5848343 L3.58815587,47.4098023 L3.58815587,47.4098023 L3.42903587,47.2347703 L3.42903587,47.2347703 L3.42903587,47.2347703 C3.35586522,47.1462563 3.29682346,47.0469588 3.25400388,46.9403983 C3.25400388,46.9403983 3.25400388,46.9403983 3.25400388,46.9403983 C2.96758789,46.3436983 2.6732159,45.7549543 2.37088791,45.1502983 L2.38679991,45.1502983 C2.06060392,44.4979064 1.74236394,43.8375584 1.40821195,43.1851664 C1.17748796,42.6998504 0.930851966,42.2065785 0.692171975,41.7212625 C0.692171975,41.7212625 0.692171975,41.7212625 0.692171975,41.6735265 C0.692171975,41.6257905 0.636479977,41.5462305 0.612611978,41.4905385 C0.582816252,41.4337396 0.556253912,41.3753025 0.53305198,41.3155065 C0.485315982,41.1643425 0.429623984,41.0290905 0.381887986,40.8779265 C0.378750149,40.8461798 0.378750149,40.8142012 0.381887986,40.7824545 C0.375780805,40.7562861 0.375780805,40.7290629 0.381887986,40.7028945 C0.381887986,40.7028945 0.381887986,40.7028945 0.381887986,40.7028945 C0.321617608,40.5288172 0.273761696,40.3506869 0.238679991,40.1698425 C0.234162846,40.148867 0.234162846,40.1271701 0.238679991,40.1061945 C0.231933887,40.0507068 0.231933887,39.9946062 0.238679991,39.9391185 L0.238679991,39.8197785 C0.238679991,39.7322625 0.238679991,39.6367905 0.238679991,39.5413185 C0.238679991,39.4458466 0.238679991,39.4617586 0.238679991,39.4140226 C0.20626717,38.9789004 0.219600166,38.5415781 0.27845999,38.1092386 C0.280386445,37.5967366 0.35813643,37.0873401 0.509183981,36.5975987 C0.509183981,36.5975987 0.509183981,36.5975987 0.509183981,36.5975987 C0.510633528,36.5817197 0.510633528,36.5657416 0.509183981,36.5498627 C0.509183981,36.4941707 0.572831979,36.4146107 0.612611978,36.3430067 C0.652391976,36.2714027 0.716039974,36.1679747 0.779687971,36.0725027 L0.779687971,36.0725027 C0.779687971,36.0725027 0.779687971,36.0725027 0.779687971,36.0725027 L0.81946797,36.0168107 L0.81946797,36.0168107 C0.867657926,35.927254 0.92356144,35.8420677 0.986543964,35.7622187 L1.07405996,35.6747027 L1.24113595,35.4758027 Z" id="Path" fill="#000000" fill-rule="nonzero" opacity="0.16" style="mix-blend-mode: multiply;"></path>
                        <path d="M2.6811719,34.4176547 C2.6811719,34.5131267 2.6413919,34.6006427 2.6254799,34.6961147 C2.48380986,35.4832905 2.43839249,36.2847735 2.49022791,37.0829146 C2.49022791,37.3056826 2.98349989,39.0321346 2.97554389,39.0878266 C4.61978383,41.9042505 6.26402377,44.7259784 7.90826371,47.5530103 C7.18274895,47.8275297 6.41624959,47.9781401 5.64080379,47.9985462 L5.4896398,47.9985462 C4.34397584,45.7019143 3.20096388,43.3973264 2.06060392,41.0847825 C2.07916163,41.1157982 2.10046291,41.1450874 2.12425192,41.1722985 C2.09033085,41.1319979 2.06343513,41.0862752 2.04469193,41.0370465 L1.81396793,40.5199065 C1.72645194,40.2891825 1.64689194,40.0664145 1.56733194,39.8356905 C1.61239936,39.9394757 1.66840816,40.0381579 1.73440794,40.1300625 C1.65739178,40.0211792 1.59331251,39.9037006 1.54346394,39.7799985 C1.50368394,39.6606585 1.40821195,39.3344626 1.29682795,38.8650586 C1.29682795,38.8650586 1.29682795,38.8252786 1.29682795,38.8014106 C1.25621893,38.6338478 1.22698032,38.4637323 1.20931196,38.2922266 L1.14566396,37.8864706 L1.14566396,37.7034826 C1.09344953,36.9697237 1.13085326,36.2323359 1.25704795,35.5076267 L1.59119994,35.1098267 C1.87045092,34.87338 2.17456307,34.667971 2.49818391,34.4972147 L2.6811719,34.4176547 Z" id="Path" fill="#FFFFFF" fill-rule="nonzero" opacity="0.2"></path>
                        <path d="M18.5136113,82.304817 L20.2559753,85.3678769 C20.5704446,85.2333012 20.8289374,84.9944763 20.9879272,84.6916169 L21.2743432,84.1506089 C21.2344793,84.2152958 21.1892353,84.2765084 21.1390912,84.3335969 C21.5158731,83.8202306 21.5503013,83.131667 21.2266072,82.583277 C20.7382499,81.7630543 19.7226268,81.4245132 18.8398073,81.787677 L18.5136113,82.304817 Z M20.5503472,84.8268689 C20.7334626,84.7395571 20.8981927,84.6180348 21.0356632,84.4688489 C20.8981927,84.6180348 20.7334626,84.7395571 20.5503472,84.8268689 Z" id="Shape" fill="#2D4E9D" fill-rule="nonzero"></path>
                        <path d="M18.5136113,82.304817 L20.2559753,85.3678769 C20.5704446,85.2333012 20.8289374,84.9944763 20.9879272,84.6916169 L21.2743432,84.1506089 C21.2344793,84.2152958 21.1892353,84.2765084 21.1390912,84.3335969 C21.5158731,83.8202306 21.5503013,83.131667 21.2266072,82.583277 C20.7382499,81.7630543 19.7226268,81.4245132 18.8398073,81.787677 L18.5136113,82.304817 Z M20.5503472,84.8268689 C20.7334626,84.7395571 20.8981927,84.6180348 21.0356632,84.4688489 C20.8981927,84.6180348 20.7334626,84.7395571 20.5503472,84.8268689 Z" id="Shape" fill="#0A0005" fill-rule="nonzero" opacity="0.05"></path>
                        <path d="M6.72281975,50.7035861 L7.06492774,51.2207261 C7.06492774,51.2207261 6.65917176,52.3186541 6.60347976,52.5095981 C6.46027176,52.9630901 6.34093177,53.44045 6.22954777,53.901898 L6.22954777,54.013282 C6.14998777,54.347434 6.07042778,54.697498 6.02269178,55.047562 C5.90599333,55.6370316 5.88450493,56.2413928 5.95904378,56.8376619 C6.00622042,57.2540709 6.10510639,57.6629778 6.25341577,58.0549299 C6.46574847,58.6865386 6.73192625,59.2987475 7.04901574,59.8848098 C7.12061974,60.0280178 7.20017974,60.1712258 7.27973973,60.3144338 C7.62980372,60.9906938 8.02760371,61.6589977 8.40153569,62.3273017 L9.39603566,64.1014896 L17.0019714,77.7221611 C18.2378033,79.9180171 19.4683313,82.113873 20.6935552,84.3097289 C20.7571351,84.4169913 20.8129693,84.5286596 20.8606312,84.6438809 C21.1727272,85.2341531 21.3647193,85.8804363 21.4255072,86.5453648 C21.4512377,86.8541725 21.3788474,87.1632235 21.2186512,87.4284808 C21.1042534,87.5614043 20.9732299,87.679058 20.8288072,87.7785448 L20.5742152,87.9217528 L20.5105672,87.9694888 L20.4389633,88.0172248 L20.4389633,88.0172248 L20.3991833,88.0172248 L20.3991833,88.0172248 C20.4866992,87.8899288 19.6751873,87.3568768 19.4603753,87.1261528 C18.8989258,86.490611 18.4105551,85.7940823 18.0044273,85.0496369 L15.7210554,80.960253 L12.0374276,74.4681573 C10.7405996,72.1450054 9.43581565,69.8138974 8.1469437,67.4827895 C7.14448774,65.7006456 6.14468377,63.9131977 5.14753181,62.1204457 C5.14753181,62.0488417 5.06001581,61.9772377 5.02819182,61.9056337 L3.74727586,59.6699978 C2.6652599,57.6809979 2.6095679,54.896398 3.60406787,52.0322381 C3.65180387,51.8810741 3.84274786,51.7458221 4.10529585,51.6185261 C4.91680782,51.2207261 6.44435976,50.9183981 6.72281975,50.7035861 Z" id="Path" fill="#2D4E9D" fill-rule="nonzero"></path>
                        <path d="M6.72281975,50.7035861 L7.06492774,51.2207261 C7.06492774,51.2207261 6.65917176,52.3186541 6.60347976,52.5095981 C6.46027176,52.9630901 6.34093177,53.44045 6.22954777,53.901898 L6.22954777,54.013282 C6.14998777,54.347434 6.07042778,54.697498 6.02269178,55.047562 C5.90599333,55.6370316 5.88450493,56.2413928 5.95904378,56.8376619 C6.00622042,57.2540709 6.10510639,57.6629778 6.25341577,58.0549299 C6.46574847,58.6865386 6.73192625,59.2987475 7.04901574,59.8848098 C7.12061974,60.0280178 7.20017974,60.1712258 7.27973973,60.3144338 C7.62980372,60.9906938 8.02760371,61.6589977 8.40153569,62.3273017 L9.39603566,64.1014896 L17.0019714,77.7221611 C18.2378033,79.9180171 19.4683313,82.113873 20.6935552,84.3097289 C20.7571351,84.4169913 20.8129693,84.5286596 20.8606312,84.6438809 C21.1727272,85.2341531 21.3647193,85.8804363 21.4255072,86.5453648 C21.4512377,86.8541725 21.3788474,87.1632235 21.2186512,87.4284808 C21.1042534,87.5614043 20.9732299,87.679058 20.8288072,87.7785448 L20.5742152,87.9217528 L20.5105672,87.9694888 L20.4389633,88.0172248 L20.4389633,88.0172248 L20.3991833,88.0172248 L20.3991833,88.0172248 C20.4866992,87.8899288 19.6751873,87.3568768 19.4603753,87.1261528 C18.8989258,86.490611 18.4105551,85.7940823 18.0044273,85.0496369 L15.7210554,80.960253 L12.0374276,74.4681573 C10.7405996,72.1450054 9.43581565,69.8138974 8.1469437,67.4827895 C7.14448774,65.7006456 6.14468377,63.9131977 5.14753181,62.1204457 C5.14753181,62.0488417 5.06001581,61.9772377 5.02819182,61.9056337 L3.74727586,59.6699978 C2.6652599,57.6809979 2.6095679,54.896398 3.60406787,52.0322381 C3.65180387,51.8810741 3.84274786,51.7458221 4.10529585,51.6185261 C4.91680782,51.2207261 6.44435976,50.9183981 6.72281975,50.7035861 Z" id="Path" fill="#0A0005" fill-rule="nonzero" opacity="0.05"></path>
                        <path d="M6.71486375,50.7035861 C6.16078784,50.8206331 5.59322845,50.8607907 5.02819182,50.8229261 C4.57180479,50.789284 4.12072107,50.7038717 3.68362786,50.5683341 C3.47677187,51.1809461 3.26991588,51.7856021 3.05510389,52.3982141 C2.06060392,55.278286 2.11629592,58.0787979 3.18239988,59.9882378 L4.46331584,62.2716097 C5.4975958,64.1333136 6.53983176,65.9870616 7.58206772,67.8408095 C8.87624367,70.1639614 10.1757236,72.4897653 11.4805076,74.8182213 L15.1163994,81.310317 C15.7051434,82.368465 16.2859314,83.4266129 16.8905874,84.4927169 C17.4350787,85.5681704 18.0939296,86.5817872 18.8557193,87.5159968 C19.4842433,88.1922568 20.6458192,88.5184528 20.8288072,87.2773168 C20.86086,86.3562822 20.6080349,85.4477787 20.1048113,84.6757049 L16.4211834,78.0960931 L8.80729168,64.4435976 C8.41744769,63.7434697 8.87093967,64.5470256 7.82074771,62.6694097 C6.96816398,61.3209328 6.24873808,59.8927391 5.67262779,58.4049939 C5.17925917,56.8384614 5.17925917,55.1581465 5.67262779,53.591614 C5.94145672,52.6023652 6.29000944,51.6365283 6.71486375,50.7035861 L6.71486375,50.7035861 Z" id="Path" fill="#2D4E9D" fill-rule="nonzero"></path>
                        <path d="M6.19772377,53.989414 L8.87093967,58.8743978 L7.23995973,60.2905658 C7.16039974,60.1473578 7.08083974,60.0041498 7.00923574,59.8609418 C6.69214625,59.2748795 6.42596847,58.6626706 6.21363577,58.0310619 C6.06532639,57.6391098 5.96644042,57.2302029 5.91926378,56.8137939 C5.84472494,56.2175248 5.86621333,55.6131636 5.98291178,55.023694 C6.03860378,54.67363 6.11816378,54.323566 6.19772377,53.989414 Z" id="Path" fill="#FFDD00" fill-rule="nonzero"></path>
                        <path d="M65.2391976,156.192186 L64.5788496,155.619354 L65.2391976,156.192186 Z" id="Path" fill="#FFFFFF" fill-rule="nonzero" opacity="0.14"></path>
                        <path d="M2.6891279,48.7623222 C2.79527217,48.852635 2.90983252,48.9325608 3.03123589,49.0010022 C2.91105007,48.9306416 2.7966531,48.8508297 2.6891279,48.7623222 L2.6891279,48.7623222 Z" id="Path" fill="#FFFFFF" fill-rule="nonzero" opacity="0.14"></path>
                        <path d="M3.18239988,49.1044302 C3.34894712,49.1849997 3.52192732,49.2515305 3.69953986,49.3033302 C3.52192732,49.2515305 3.34894712,49.1849997 3.18239988,49.1044302 L3.18239988,49.1044302 Z" id="Path" fill="#FFFFFF" fill-rule="nonzero" opacity="0.14"></path>
                        <path d="M4.12120785,49.3988022 L4.33601984,49.3988022 L4.12120785,49.3988022 Z" id="Path" fill="#FFFFFF" fill-rule="nonzero" opacity="0.14"></path>
                        <path d="M2.55387591,48.6429822 C2.42018618,48.5106512 2.30509741,48.3607681 2.21176792,48.1974462 C2.30509741,48.3607681 2.42018618,48.5106512 2.55387591,48.6429822 L2.55387591,48.6429822 Z" id="Path" fill="#FFFFFF" fill-rule="nonzero" opacity="0.14"></path>
                        <path d="M67.6259975,158.085714 C67.0054295,157.61631 66.3928176,157.130994 65.7961176,156.629766 C66.3609936,157.130994 66.9736055,157.61631 67.6259975,158.085714 Z" id="Path" fill="#FFFFFF" fill-rule="nonzero" opacity="0.14"></path>
                        <path d="M65.7642936,156.629766 L65.2312416,156.192186 L65.7642936,156.629766 Z" id="Path" fill="#000000" fill-rule="nonzero" opacity="0.1" style="mix-blend-mode: multiply;"></path>
                        <polygon id="Path" fill="#000000" fill-rule="nonzero" opacity="0.1" style="mix-blend-mode: multiply;" points="67.5941735 158.085714 67.5941735 158.085714 67.5941735 158.077758"></polygon>
                        <path d="M64.5708936,155.619354 C64.1094456,155.205642 63.6400417,154.823754 63.1706377,154.346394 C63.6479977,154.79193 64.1094456,155.213598 64.5708936,155.619354 Z" id="Path" fill="#000000" fill-rule="nonzero" opacity="0.1" style="mix-blend-mode: multiply;"></path>
                        <path d="M6.14998777,49.4147142 L6.14998777,49.4147142 C5.54843294,49.5013196 4.93757468,49.5013196 4.33601984,49.4147142 C4.93757468,49.5013196 5.54843294,49.5013196 6.14998777,49.4147142 L6.14998777,49.4147142 Z" id="Path" fill="#000000" fill-rule="nonzero" opacity="0.1" style="mix-blend-mode: multiply;"></path>
                        <path d="M2.6891279,48.7623222 L2.55387591,48.6429822 L2.6891279,48.7623222 Z" id="Path" fill="#000000" fill-rule="nonzero" opacity="0.1" style="mix-blend-mode: multiply;"></path>
                        <path d="M3.03123589,49.0010022 L3.20626788,49.1044302 L3.03123589,49.0010022 Z" id="Path" fill="#000000" fill-rule="nonzero" opacity="0.1" style="mix-blend-mode: multiply;"></path>
                        <path d="M3.72340786,49.3271982 C3.85070386,49.3669782 3.98595585,49.3908462 4.12120785,49.4226702 C3.97799985,49.3669782 3.85070386,49.3271982 3.72340786,49.3271982 Z" id="Path" fill="#000000" fill-rule="nonzero" opacity="0.1" style="mix-blend-mode: multiply;"></path>
                        <g id="Group" transform="translate(193.355597, 174.597599) rotate(8.000000) translate(-193.355597, -174.597599) translate(80.355597, 36.597599)" fill-rule="nonzero">
                            <path d="M225.480988,213.427648 L118.679648,275.086646 L15.2914314,96.0050485 C12.0468388,90.389758 11.90868,83.5028413 14.9254555,77.7619411 L38.4274786,32.9776188 C41.823516,26.514425 48.6354031,22.5821083 55.9306779,22.8734992 L106.467188,24.9102351 C112.94828,25.1639865 118.845386,28.7268841 122.084816,34.3460507 L225.480988,213.427648 Z" id="Path" fill="#F6AD40"></path>
                            <path d="M225.480988,213.427648 L118.679648,275.086646 L15.2914314,96.0050485 C12.0468388,90.389758 11.90868,83.5028413 14.9254555,77.7619411 L38.4274786,32.9776188 C41.823516,26.514425 48.6354031,22.5821083 55.9306779,22.8734992 L106.467188,24.9102351 C112.94828,25.1639865 118.845386,28.7268841 122.084816,34.3460507 L225.480988,213.427648 Z" id="Path" fill="#474043" opacity="0.1"></path>
                            <polygon id="Rectangle_35" fill="#88C782" points="1.20931196 51.6901301 90.4517607 0.159119994 94.7957365 1.32865195 0.0397799985 56.0341059"></polygon>
                            <g id="Group_74" transform="translate(0.000000, 0.795600)">
                                <polygon id="Rectangle_35-2" fill="#AEDEB4" transform="translate(110.133418, 136.511695) rotate(-30.000000) translate(-110.133418, -136.511695) " points="55.423986 11.0853591 164.84285 11.0853591 164.84285 261.93803 55.423986 261.93803"></polygon>
                                <path d="M35.6349227,56.8535739 C37.5045826,60.0916658 35.4360227,64.9448256 31.1079589,67.4430095 C26.779895,69.9411934 21.5607592,69.3126695 19.6751873,66.0666216 C17.7896153,62.8205737 19.8740873,57.9833259 24.2021511,55.485142 C28.530215,52.9869581 33.7493508,53.615482 35.6349227,56.8535739 M70.8481774,28.538171 C70.6243028,30.9999123 71.1601973,33.4711356 72.3836853,35.6190107 C76.1468732,42.1270185 85.3837889,43.8296024 93.0215486,39.4219786 C95.8464761,37.8093023 98.1788373,35.4576881 99.7682363,32.6195988 L140.240407,102.711956 C127.192567,93.6898526 107.573072,93.3000086 90.5551887,103.125668 C73.5373053,112.951328 64.0617097,130.176067 65.3585376,145.944859 L24.8863671,75.8525012 C28.1392856,75.8978227 31.3423521,75.0502759 34.1471507,73.4020533 C41.7849105,68.9944295 44.9275304,60.1473578 41.1643425,53.63935 C39.924483,51.4999922 38.0507081,49.7985824 35.8019987,48.7702782 L70.8481774,28.538171 Z M94.2388165,23.0723992 L94.2388165,23.0723992 C96.1084765,26.318447 94.0319606,31.1636509 89.7118527,33.6618348 C85.3917449,36.1600187 80.1646531,35.5314947 78.2711251,32.2934028 C76.3775972,29.0553109 78.4779811,24.2021511 82.806045,21.7039672 C87.1341088,19.2057833 92.3532446,19.8343073 94.2388165,23.0723992 M154.290702,127.089139 L194.921993,197.420177 C191.670223,197.375693 188.468065,198.220248 185.661209,199.862669 C178.023449,204.278249 174.88083,213.12532 178.636061,219.641284 C179.884546,221.776575 181.759342,223.47639 184.006361,224.510356 L148.952227,244.750419 C149.177134,242.288614 148.641173,239.817084 147.416719,237.669579 C143.653531,231.161572 134.416615,229.451032 126.778855,233.858655 C123.954977,235.469155 121.622718,237.817916 120.032168,240.653079 L79.5599971,170.50503 C92.5998806,179.527133 112.227332,179.924933 129.245215,170.091318 C146.263099,160.257702 155.738694,143.040919 154.441866,127.272127 M200.586665,206.887816 C202.464281,210.125908 200.387765,214.979068 196.059701,217.477252 C191.731637,219.975436 186.512501,219.346912 184.626929,216.10882 C182.741357,212.870728 184.825829,208.017568 189.153893,205.519384 C193.481957,203.021201 198.701093,203.649725 200.586665,206.887816 M126.062815,249.969555 L126.062815,249.929775 C124.193155,246.683727 126.269671,241.838523 130.597735,239.340339 C134.925799,236.842155 140.144935,237.470679 142.030507,240.708771 C143.916079,243.946863 141.823651,248.800023 137.495587,251.298207 C133.167523,253.796391 127.948387,253.167867 126.062815,249.929775 M119.944652,253.207647 L119.944652,253.207647 L126.747031,264.998438 L213.181012,215.090452 L93.3079646,7.55819972 L6.86602775,57.4582299 L119.944652,253.207647 Z" id="Path_298" fill="#5FBC69"></path>
                                <polygon id="Path_299" fill="#AEDEB4" points="137.845651 124.201111 96.9359004 147.814519 107.764016 152.04711 96.7529125 158.41191 84.6995729 153.861078 79.8145891 145.395895 132.515131 114.972152"></polygon>
                                <polygon id="Path_300" fill="#62B459" points="32.5639068 59.2642418 24.9420591 63.6479977 26.851499 64.3958616 24.9102351 65.5176576 22.7780272 64.7220576 21.7914832 63.0115177 31.4978028 57.4423179"></polygon>
                                <polygon id="Path_301" fill="#62B459" points="91.7247206 25.1091351 84.1028729 29.5088029 86.0123128 30.2566669 84.0710489 31.3784628 81.938841 30.5828629 80.952297 28.8723229 90.6586167 23.3031231"></polygon>
                                <polygon id="Path_304" fill="#5FBC69" points="67.9601495 67.3395815 65.5733496 67.3395815 65.5733496 69.7263814 63.2899777 70.3389934 63.9025897 72.6223653 61.8658537 73.7998533 63.0433417 75.8365892 61.3725817 77.4993932 63.0433417 79.1701531 61.8976777 81.151197 63.9344137 82.328685 63.3297577 84.6041009 65.6051736 85.2167129 65.6051736 87.6035128 67.9919735 87.6035128 68.6045855 89.8868847 70.8879574 89.2742727 72.0574894 91.3110087 74.1021813 90.1335207 75.7649852 91.8042806 77.4357452 90.1335207 79.4724811 91.3110087 80.657925 89.2742727 82.933341 89.8868847 83.5459529 87.6035128 85.9327528 87.6035128 85.9327528 85.2167129 88.2081688 84.6041009 87.6035128 82.328685 89.6402487 81.151197 88.4627608 79.1144611 90.1335207 77.4437012 88.4627608 75.7729412 89.6402487 73.7282493 87.5159968 72.5746293 88.1206528 70.2992134 85.8452369 69.6866014 85.8452369 67.2998015 83.4584369 67.2998015 82.845825 65.0164296 80.562453 65.6290416 79.4486131 63.6479977 77.4039212 64.8254856 75.7331612 63.1547257 74.0703573 64.8254856 72.0256654 63.6479977 70.8481774 65.6926896 68.5727615 65.0800776"></polygon>
                            </g>
                            <path d="M153.129126,255.196647 L225.480988,213.427648 L123.644191,37.0431346 L76.5367172,89.2504047 C69.5494549,96.9911953 68.3507802,108.354503 73.5691293,117.38282 L153.129126,255.196647 Z" id="Path" fill="#F9C87F"></path>
                            <path d="M192.407897,232.522047 L118.679648,275.086646 L16.8428514,98.7021324 L86.7203968,83.3709209 C96.9598887,81.0492657 107.524425,85.6219756 112.839944,94.6763965 L192.407897,232.522047 Z" id="Path" fill="#F6AD40"></path>
                            <path d="M192.407897,232.522047 L118.679648,275.086646 L16.8428514,98.7021324 L86.7203968,83.3709209 C96.9598887,81.0492657 107.524425,85.6219756 112.839944,94.6763965 L192.407897,232.522047 Z" id="Path" fill="#474043" opacity="0.1"></path>
                            <path d="M191.023553,233.317647 L118.679648,275.086646 L16.8428514,98.7021324 L85.6065569,84.0074009 C95.7985123,81.8292852 106.234669,86.4565164 111.463556,95.4719965 L191.023553,233.317647 Z" id="Path" fill="#F9C87F"></path>
                        </g>
                    </g>
                </g>
            </g>
        </g>
    </g>
</svg>